/* XPM */
static char *_____________[] = {
/* columns rows colors chars-per-pixel */
"85 85 23 1",
"  c #29FF00",
". c #29FF01",
"X c #2BFE00",
"o c #2AFF00",
"O c #2BFF00",
"+ c #2BFE01",
"@ c #2AFF02",
"# c #2CFE00",
"$ c #2CFF00",
"% c #2DFF00",
"& c #2DFF01",
"* c #2CFF02",
"= c #FFFFFF",
"- c #FFFFFF",
"; c #FFFFFF",
": c #FFFFFF",
"> c #FFFFFF",
", c #FFFFFF",
"< c #FFFFFF",
"1 c #FFFFFF",
"2 c #FFFFFF",
"3 c #FFFFFF",
"4 c #FFFFFF",
/* pixels */
"4444444444444444444444444444444444444444444444444444444444444444444444444444444444444",
"4444444444444444444444444444444444444444444444444444444444444444444444444444444444444",
"4444444444444444444444444444444444444444444444444444444444444444444444444444444444444",
"4444444444444444444444444444444444444444444444444444444444444444444444444444444444444",
"4444444444444444444444444444444444444444444444444444444444444444444444444444444444444",
"4444444444444444444444444444444444444444444444444444444444444444444444444444444444444",
"4444444444444444444444444444444444444    44444444444444444444444444444444444444444444",
"44444444444444444444444444444444# ## ### 44444444444444444444444444444444444444444444",
"444444444444444444444444444444 ##########44444444444444444444444444444444444444444444",
"444444444444444444444444444444###########44444444444444444444444444444444444444444444",
"4444444444444444444444444###44###########44444444444444444444444444444444444444444444",
"44444444444444444444444  # #44 ##########44444444444444444444444444444444444444444444",
"4444444444444444444-44   ###444##########44444444444444444444444444444444444444444444",
"44444444444444444444####### #44 #########44444444444444444444444444444444444444444444",
"4444444444444444444  ## #####444#########44444444444444444444444444444444444444444444",
"44444444444444444 #  # *## *  44#########44444444444444444444444444444444444444444444",
"44444444444444444##  #  # # *#44 *##*### 44444444444444444444444444444444444444444444",
"444444444444444444# #### *###* 44*# # ## 44444444444444444444444444444444444444444444",
"44444444444444 #444  ###*   #*#44###  ## 444-4444444444444444444444444444444444444444",
"44444444444444###444## ** ## * 444# # ## 44444444444444444444444444444444444444444444",
"4444444444444# *  444    ## *###44 ## #  44444444444444444444444444444444444444444444",
"444444444444## ####444####*##*##444#  44444444444444444444444444444444444444444444444",
"444444444444####### 444##* *   *44444444444444444444444444444444444444444444444444444",
"44444444444 ####### #444##**### 44444444444>44444444444444444444444444444444444444444",
"4444444444X #########*444#  ###444444444444444444444444444444444444444444444444444444",
"4444444444######*## *# 444## 44444444444444444444444444444444444444444444444444444444",
"444444444 ### ####*####*44444-4444444444444444444444444444444444444444444444444444444",
"444444444 ## # # #  #### 444444444444444444444444444444444444444444444444444444444444",
"444444444##  ######  ####444444444444444444444444444444444444444444444444444444444444",
"444444444444### *#* # #  444444444444444444444444444444444444444444444444444444444444",
"44444444#44444 #* ######4444444444444444444444444444444444444444444444444444 44444444",
"4444444  ##444444### #*#44444444444444444444444444444444444444444444444444#  #4444444",
"4444444#**# #444444##X 444444444444444444444444444444444444444444444444  #####4444444",
"444444    ## # #44444444444444444444444444444444444444444444444444444  # #####4444444",
"444444#   *# * #  4444444444444444444444444444444444444444444444444*## ######  444444",
"444444 #** *## # # #44444444444444444444444444444444444444444444##   # ## ### #444444",
"444444 # #  *###### #44>4444444444444444444444444444444444444444* # #*#  #  ## 444444",
"444444 ##*##### ## # 4444444444444444444444444444444444444444444##*########*###444444",
"44444  ## ### ##* ##X4444444444444444444444444444444444444444444#*#### ## ###* 444444",
"44444 *##  *# #  ###44444444444444444444444444444444444444444444 #  ##### #*##  44444",
"44444  #############444444444444444444444444444444444444444444444## ##  ########44444",
"44444   ######### # 444444444444444444444444444444444444444444444#  # # ########44444",
"4444444444444444444444444444444444444444444444444444444444444444444444444444444444444",
"4444444444444444444444444444444444444444444444444444444444444444444444444444444444444",
"4444444444444444444444444444444444444444444444444444444444444444444444444444444444444",
"44444 XX######## #  444444444444444444444444444444444444444444444 # # ##########44444",
"44444#X######### ###-44444444444444444444444444444444444444444444###   #########44444",
"44444## ## ## #####  4444444444444444444444444444444444444444444#  ##### ##  ## 44444",
"444444 #  ## #   ##  4444444444444444444444444444444444444444444 # ## #*  *### 444444",
"444444### ## ##*# ## 4444444444444444444444444444444444444444444######## # ####444444",
"44-444# ## # ***#### 4444444444444444444444444444444444444444444###    #* # # #444444",
"444444 ##    #####* 444444444444444444444444444444444444444444444#  *##### ####444444",
"444444##** ###*   4444444444444444444444444444444444444444444444444### ### # # 444444",
"444444 #### #  444444 44444444444444444444444444444444444444444 444444# *#*  #4444444",
"4444444####  44444##   444444444444444444444444444444444444444#   #44444* ####4444444",
"4-44444 *#444444# ## ## 4444444444444444444444444444444444444###*#   44444# # 4444444",
"44444444444444## ### ###444444444444444444444444444444444444 ###  #### 44444444444444",
"44444444444# # # ####### 44>44444444444444444444444444444444 ###*###*# * #44444444444",
"444444444######### * ##* 44444444444444444444444444444444444###  #** # ###X#444444444",
"444444444  # ## ##  ##*# 444444>4444444444444444444444444444# ##*  #* *###  441444444",
"444444444# ##* # # ## # 4444444444444444444444444444444444444  ## ### ### #*444444444",
"4444444444##* *##### # 444#X##4444444444444444444444444# # 444   *###*#### 4-44444444",
"4444444444  #  *####*#444##    44444444444444444444444# # ##444 #** # # ###4444444444",
"44444444444##   ##*# 444###  ## 444444444444444444444######  444# ##**# # 44414444444",
"444444441444  # ## #444  ###### 44444444444444444444 ##### ###444 ###### 444444444444",
"444444444444 #X  # 444 ####### #44# #  4444444### 444 ###**##  444#   ## 444444444444",
"44444444=4444XXX# 444  # # # *#*44## #*# 444##*####44 *# ##### #444   *#4444444444444",
"44444444444444XX#444#*# ### ###444##   ##444 ####  444* #* ** ###444## 44444>44444444",
"444444444=44444 444## ##**##  #44 ### # #444#   ##*#44 #####*#####444 444444441444444",
"444444444444444444# ##  # * * 444   # #*#444###### #44# *  #  *## #444444444444444444",
"4444444444-444444 ###### # ###44#*####   444#### # # 44## # *#*  *  44444444444144444",
"444444444444444444  ##*# #### 44#**####*#444   # *## 44###*## ###*#444444444444444444",
"4444444444444444444  # #*### 444#*#* # ##444####### *444#    *##* 4444444444444444444",
"44444444444444444444#### *###44  # # ***#444##### #*##44 #######444444444444444444444",
"4444444444444444444444X #  *444###*###*##444####***# #44##  ## 4444444444444444444444",
"44444444444444444444444  * #44  #  ### ##444##### # ###44### 444444444444444444444444",
"4444444444444444444444444 # 44 ##* *#  *#444#### *# ###44###444-444444444444444444444",
"4444444444444444444-444444444## ### #*###444####  ##*  444444444444444444444444444444",
"4444444444444444444444>4444444 #  #* ####444###### *# #444444444444444444444444444444",
"444444444444444444444444444444444 ####  #444########4444444444444444>4444444444444444",
"44444444444444444444444444444444444444  #444 X 44444444444444444444444444444444444444",
"4444444444444444444444444444444444444444444444444444444444444444444444444444444444444",
"44444444444444444444444444444444=4444444444444444444444444444444444444444444444444444",
"44444444444444444444444444444444444444>4444444444444444444444444444444444444444444444",
"4444444444444444444444444444444444444444444444444444444444444444444444444444444444444"
};
