/* XPM */
static char *_____________[] = {
/* columns rows colors chars-per-pixel */
"85 85 24 1",
"  c #2CFE00",
". c #2CFE00",
"X c #2CFE00",
"o c #2CFE00",
"O c #2CFE00",
"+ c #2CFE00",
"@ c #2CFE00",
"# c #2CFE00",
"$ c #2CFF00",
"% c #2CFE00",
"& c #2CFE00",
"* c #2CFE00",
"= c #2CFE00",
"- c #FFFFFF",
"; c #FFFFFF",
": c #FFFFFF",
"> c #FFFFFF",
", c #FFFFFF",
"< c #FFFFFF",
"1 c #FFFFFF",
"2 c #FFFFFF",
"3 c #FFFFFF",
"4 c #FFFFFF",
"5 c #FFFFFF",
/* pixels */
"555555555555555555555555555555555555555555555,-55555555555555555555555555555555555555",
"5555555555555555555555555555555555555555555555555555555555555555555555555555555555555",
"5555555555555555555555555555555555555555555555555555555555555555555555555555555555555",
"555555555555555555555555555555555555555555555,55-5-5555555555555555555555555555555555",
"5555555555555555555555555555555555555555555555555555555,55555555555555555555555555555",
"5555555555555555555555555555555555555555555555555555555555555555555555555555555555555",
"5555555555555555555555555555555555555    555  # 5555555555555555555555555555555555555",
"55555555555555555555555555555555# ## ### 555# # ..   55555555555555555555555555555555",
"555555555555555555555555555555###########555#### = =#  555555555555555555555555555555",
"555555555555555555555555555555# #########555##### # ###5555555555555,55-5555555555555",
"5555555555555555555555555###55*##########555#####=#=#  55 ##5555555555555555555555555",
"55555555555555555555555  # #55 ##########555##### ##=#555    X55555,55;55555555555555",
"5555555555555555555;55   ###555*#########555###### ###55#  #X# 5555555555555555555555",
"55555555555555555555####### #55 #########555####  ==# 55  ##X *  55555555555555555555",
"5555555555555555555  ## #####555#########555#### =# #555##= ##XX* 5555555555555555555",
"55555555555555555 #  # =## =  55#########555###### = 55###==   #   .55555555555555555",
"55555555555555555##  #  # # =#55 =##=### 555### # ##555# ### ###  ##55555555555555555",
"555555555555555555# #### =###= 55=# # ###555##### #=55 ##########  555555555555;55555",
"55555555555555 #555  ###=   #=#55###  ###555#### # #55# ##    #=##555##55555555555555",
"55555555555555###555## == ## = 555# # ## 555# ## # 55=#=## ###=##555 # 55555555555555",
"5555555555555# =  555    ## =###55 ## # #555  # ## 55 ## # ## # 555# ###5555555555555",
"555555555555## ####555X*##=##=##555#  555555555 # 555#  #### =#555# # #  555555555555",
"555555555555####### 555##= =   =55555555555555555555#  ####=# 555 =# # # 555555555555",
"55555555555 ####### #555##==### 555555555555555555555# ##### 555#= =###= #55555555555",
"5555555555X #########=555#  ###55555555555555555555555  #=##555 ###  = ## #5555555555",
"5555555555######=## =# 555## 555555555555555555555555555## 555## =## # ### 5555555555",
"555555555 ### ####=####=55555;5555555555555555555555555555555###=# #= ####  555555555",
"555555555 ## # # #  #### 55555555555555555555555555555555555# ##=## # # ##  555555555",
"555555555##  ######  ####55555555555555555555555555555555555  #=# #=# #### #555555555",
"555555555555### =#= # #  55555555555555555555555555555555555###=# =#==## 555555555555",
"55555555#55555 #= ######5555555555555555555555555555555555555#  == # # 55555 55555555",
"5555555  ##555555### #=#555555555555555555555555555,555555555##=####555555  # 5555555",
"5555555#==# #555555##X 555555555555555555555555555555555555555  # 55555  #####5555555",
"555555    ## # #55555555555555555555555555555555555555555555555555555# # ## ##5555555",
"555555#   =# = #  5555555555555555555555555555555555555555555555555  ## #####  555555",
"555555 #== =## # # #55555555555555555555555555555555555555555555###= #### ### #555555",
"555555 # #  =###### #55,5555555555555555555555555555555555555555 ### = =### ## 555555",
"555555 ##=##### ## # 5555555555555555555555555555555555555555555=###### # #= =#555555",
"55555  ## ### ##= ##X5555555555555555555555555555555555555555555##  #=###= ### 555555",
"55555 =##  =# #  ###55555555555555555555555555555555555555555555   ###  ## ###  55555",
"55555  #############555555555555555555555555555555555555555555555## ##  ########55555",
"55555   ######### # 555555555555555555555555555555555555555555555#  # # ########55555",
"5555555555555555555555555555555555555555555555555555555555555555555555555555555555555",
"5555555555555555555555555555555555555555555555555555555555555555555555555555555555555",
"5555555555555555555555555555555555555555555555555555555555555555555555555555555555555",
"55555 XX######## #  555555555555555555555555555555555555555555555 # # ##########55555",
"55555#X######### ###;55555555555555555555555555555555555555555555###   #########55555",
"55555## ## ## #####  5555555555555555555555555555555555555555555#  ##### ##  ## 55555",
"555555 #  ## #   ##  55555555555555555555555555555555555,5555555 # ## #=  =### 555555",
"555555### ## ##=# ## 5555555555555555555555555555555555555555555######## # ####555555",
"55;555# ## # ===#### 5555555555555555555555555555555555555555555###    #= # # #555555",
"555555 ##    #####= 5555555555555555555555555555555555555555555-5#  =##### ####555555",
"555555##== ###=   5555555555555555555555555555555555555555555555555### ### # # 555555",
"555555 #### #  555555 55555555555555555555555555555555555555555 555555# =#=  #5555555",
"5555555####  55555##   555555555555555555555555555555555555555 #  #55555= ####5555555",
"5;55555 =#555555# ## ## 5555555555555555555555555555555555555###=#   55555# # 5555555",
"55555555555555## ### ###555555555555555555555555555555555555 ###  #### 555,5555555555",
"55555555555# # ## ###### 5;,55555555555555555555555555555555 ###=###=# =##55555555555",
"555555555######### = ##= 55555555555555555555555555555555555###  #== # # #X 555555555",
"555555555  # ## ## ###=# 555555,5555555555555555555555555555# ##=  #= =###X 55-555555",
"555555555# ##= # #  # # 5555555555555555555555555555555555555  ## ### ### #=555555555",
"5555555555##= =##### # 555# X*5555555555555555555555555# # 555   =###=#### 5555555555",
"5555555555  #  =####=#555###*  55555555555555555555555# # ##555 #== # # ###5555555555",
"55555555555##   ##=# 555###   * 555555555555555555555######  555# ##==# # 555-5555555",
"55555555-555  # *#  555  ###### 55555555555555555555 ##### ###555 ###### 555555555555",
"555555555555 #X  # 555 ####### #55# #  5555555### 555 ###==##  555#   ## 555555555555",
"55555555-5555XXX #555  # # # =#=55## #=# 555##=####55 =# ##### #555   =#5555555555555",
"55555555555555XX#555#=# ### ###555##   ##555 ####  555= #= == ###555## 55555,55555555",
"555555555-55555 555## ##==##  #55 ### # #555#   ##=#55 #####=#####555 55555555-555555",
"555555555555555555X ##  # = = 555   # #=#555###### #55# =  #  =## #555555555555555555",
"5555555555;555555X X#### # ###55#=####   555#### # # 55## # =#=  =  55555555555-55555",
"555555555555555555* #### #### 55#==####=#555   # =## 55###=## ###=#555555555555555555",
"5555555555555555555  # #=### 555#=#= # ##555####### =555#    =##= 5555555555555555555",
"55555555555555555555 #** =###55  # # ===#555##### #=##55 #######555555555555555555555",
"5555555555555555555555X #  =555###=###=##555####===# #55##  ## 5555555555555555555555",
"55555555555555555555555  = #55  #  ### ##555##### # ###55### 555555555555555555555555",
"5555555555555555555555555 # 55 ##= =#  =#555#### =# ###55###555;555555555555555555555",
"5555555555555555555;555555555## ### #=###555####  ##=  555555555555555555555555555555",
"5555555555555555555555,5555555 #  #= ####555###### =# #555555555555555555555555555555",
"555555555555555555555555555555555 ####  #555########5555555555555555,5555555555555555",
"55555555555555555555555555555555555555   555 # 55555555555555555555555555555555555555",
"5555555555555555555555555555555555555555555555555555555555555555555555555555555555555",
"5555555555555555555555555555555555555555555555555555555555555555555555555555555555555",
"55555555555555555555555555555555555555,55555555,5555555555555555555555555555555555555",
"555555555555555555555555555555555555,555555555555555555555555555555555555555555555555"
};
