/* XPM */
static char *_____________[] = {
/* columns rows colors chars-per-pixel */
"85 85 21 1",
"  c #29FF00",
". c #29FF01",
"X c #2BFE00",
"o c #2AFF00",
"O c #2BFF00",
"+ c #2BFE01",
"@ c #2AFF02",
"# c #2CFF00",
"$ c #2DFF00",
"% c #2DFF01",
"& c #2CFF02",
"* c #FFFFFF",
"= c #FFFFFF",
"- c #FFFFFF",
"; c #FFFFFF",
": c #FFFFFF",
"> c #FFFFFF",
", c #FFFFFF",
"< c #FFFFFF",
"1 c #FFFFFF",
"2 c #FFFFFF",
/* pixels */
"2222222222222222222222222222222222222222222222222222222222222222222222222222222222222",
"2222222222222222222222222222222222222222222222222222222222222222222222222222222222222",
"2222222222222222222222222222222222222222222222222222222222222222222222222222222222222",
"2222222222222222222222222222222222222222222222222222222222222222222222222222222222222",
"2222222222222222222222222222222222222222222222222222222222222222222222222222222222222",
"2222222222222222222222222222222222222222222222222222222222222222222222222222222222222",
"2222222222222222222222222222222222222    22222222222222222222222222222222222222222222",
"22222222222222222222222222222222+ ++++++ 22222222222222222222222222222222222222222222",
"222222222222222222222222222222++++++$+$+$22222222222222222222222222222222222222222222",
"222222222222222222222222222222+++++$+$+$+22222222222222222222222222222222222222222222",
"2222222222222222222222222+++22++$+$+$+$++22222222222222222222222222222222222222222222",
"22222222222222222222222 ++++22+++$+$+$+$+22222222222222222222222222222222222222222222",
"2222222222222222222*22++ +++222+$+$+$+$++22222222222222222222222222222222222222222222",
"22222222222222222222+++++++++22 +$+$+$+$+22222222222222222222222222222222222222222222",
"2222222222222222222 +++++++++222$+$+$+$++22222222222222222222222222222222222222222222",
"22222222222222222 ++ ++++$+++ 22+$+$+$+$+22222222222222222222222222222222222222222222",
"22222222222222222++ +++ ++++++22++++$+++ 22222222222222222222222222222222222222222222",
"222222222222222222+ +++++ ++++ 22+++++++ 22222222222222222222222222222222222222222222",
"22222222222222 +222 +++++++++++22+++++++ 222*2222222222222222222222222222222222222222",
"22222222222222+++222+++++++++$+222+ ++++ 22222222222222222222222222222222222222222222",
"2222222222222+++ +222 + ++++++++22 ++ ++ 22222222222222222222222222222222222222222222",
"222222222222+++$+++222+++++$++++222+  22222222222222222222222222222222222222222222222",
"222222222222++++++++222++$++++++22222222222222222222222222222222222222222222222222222",
"22222222222+++$++++ +222$++$+++ 22222222222:22222222222222222222222222222222222222222",
"2222222222X ++$++$+++$222++ +++222222222222222222222222222222222222222222222222222222",
"2222222222+++++$$+$+$++222+++22222222222222222222222222222222222222222222222222222222",
"222222222+++++++++++$+$+22222*2222222222222222222222222222222222222222222222222222222",
"222222222++++++++++++$+$ 222222222222222222222222222222222222222222222222222222222222",
"222222222++  ++++++++++++222222222222222222222222222222222222222222222222222222222222",
"222222222222++++++++++$+ 222222222222222222222222222222222222222222222222222222222222",
"22222222+22222++$+++++++2222222222222222222222222222222222222222222222222222222222222",
"2222222 +++22*222+++ ++$2222222222222222222222222222222222222222222222222222222222222",
"2222222+ ++++222222++  22222222222222222222222222222222222222222222222222222222222222",
"222222 + +++++++222222222222222222222222222222222222222222222222222222222222222222222",
"222222++++++ +++  2222222222222222222222222222222222222222222222222222222222222222222",
"222222++++++++++++ +22222222222222222222222222222222222222222222222222222222222222222",
"222222 ++++++$$++++++2222222222222222222222222222222222222222222222222222222222222222",
"222222 +++++++++++++ 2222222222222222222222222222222222222222222222222222222222222222",
"22222 +++ ++++++++++ 2222222222222222222222222222222222222222222222222222222222222222",
"22222++++++++++++$++22222222222222222222222222222222222222222222222222222222222222222",
"22222  ++++$+$++++++22222222222222222222222222222222222222222222222222222222222222222",
"22222 + ++++$++++ + 22222222222222222222222222222222222222222222222222222222222222222",
"2222222222222222222222222222222222222222222222222222222222222222222222222222222222222",
"2222222222222222222222222222222222222222222222222222222222222222222222222222222222222",
"2222222222222222222222222222222222222222222222222222222222222222222222222222222222222",
"*2222 + $+++++++ + +22222222222222222222222222222222222222222222222222222222222222222",
"22222++++$+++++$ +++*2222222222222222222222222222222222222222222222222222222222222222",
"22222++ ++++++++++++ 2222222222222222222222222222222222222222222222222222222222222222",
"222222 + ++++++ +++++2222222222222222222222222222222222222222222222222222222222222222",
"222222+++ +++++++++++2222222222222222222222222222222222222222222222222222222222222222",
"22*222+++++++++++++++2222222222222222222222222222222222222222222222222222222222222222",
"222222++++  +++$+ + 22222222222222222222222222222222222222222222222222222222222222222",
"222222++++++++++  2222222222222222222222222222222222222222222222222222222222222222222",
"222222+++++ $++2222222222222222222222222222222222222222222222222222222222222222222222",
"2222222++$+  222222222222222222222222222222222222222222222222222222222222222222222222",
"2222222 $+222222222222222222222222222222222222222222222222222222222222222222222222222",
"2222222222222222222222222222222222222222222222222222222222222222222222222222222222222",
"2222222222222222222222222222222222222222222222222222222222222222222222222222222222222",
"2222222222222222222222222222222222222222222222222222222222222222222222222222222222222",
"2222222222222222222222222222222222222222222222222222222222222222222222222222222222222",
"2222222222222222222222222222222222222222222222222222222222222222222222222222222222222",
"2222222222222222222222222222222222222222222222222222222222222222222222222222222222222",
"2222222222222222222222222222222222222222222222222222222222222222222222222222222222222",
"2222222222222222222222222222222222222222222222222222222222222222222222222222222222222",
"2222222222222222222222222222222222222222222222222222222222222222222222222222222222222",
"2222222222222222222222222222222222222222222222222222222222222222222222222222222222222",
"2222222222222222222222222222222222222222222222222222222222222222222222222222222222222",
"2222222222222222222222222222222222222222222222222222222222222222222222222222222222222",
"2222222222222222222222222222222222222222222222222222222222222222222222222222222222222",
"2222222222222222222222222222222222222222222222222222222222222222222222222222222222222",
"2222222222222222222222222222222222222222222222222222222222222222222222222222222222222",
"2222222222222222222222222222222222222222222222222222222222222222222222222222222222222",
"2222222222222222222222222222222222222222222222222222222222222222222222222222222222222",
"2222222222222222222222222222222222222222222222222222222222222222222222222222222222222",
"2222222222222222222222222222222222222222222222222222222222222222222222222222222222222",
"2222222222222222222222222222222222222222222222222222222222222222222222222222222222222",
"2222222222222222222222222222222222222222222222222222222222222222222222222222222222222",
"2222222222222222222222222222222222222222222222222222222222222222222222222222222222222",
"2222222222222222222222222222222222222222222222222222222222222222222222222222222222222",
"2222222222222222222222222222222222222222222222222222222222222222222222222222222222222",
"2222222222222222222222222222222222222222222222222222222222222222222222222222222222222",
"2222222222222222222222222222222222222222222222222222222222222222222222222222222222222",
"2222222222222222222222222222222222222222222222222222222222222222222222222222222222222",
"2222222222222222222222222222222222222222222222222222222222222222222222222222222222222",
"2222222222222222222222222222222222222222222222222222222222222222222222222222222222222"
};
