/* XPM */
static char *_____________[] = {
/* columns rows colors chars-per-pixel */
"85 85 179 2",
"   c #18EF00",
".  c #05F300",
"X  c #0BF400",
"o  c #04FF00",
"O  c #0CFE00",
"+  c #16F500",
"@  c #1EF300",
"#  c #14FF00",
"$  c #1CFE00",
"%  c #1DFE0A",
"&  c #24EA00",
"*  c #2CED03",
"=  c #2DEE0A",
"-  c #3DE303",
";  c #35EC04",
":  c #3AEC03",
">  c #31E50D",
",  c #34EB0C",
"<  c #3CED0E",
"1  c #23F500",
"2  c #2BF401",
"3  c #23FE00",
"4  c #2BFF01",
"5  c #21F60E",
"6  c #25FD0B",
"7  c #2CFD0A",
"8  c #34F501",
"9  c #3FF203",
"0  c #33FC02",
"q  c #39FD03",
"w  c #33F50B",
"e  c #3CF50C",
"r  c #33FD0B",
"t  c #3AFD0C",
"y  c #25E810",
"u  c #2CEF15",
"i  c #36EB14",
"p  c #3CEE12",
"a  c #25F714",
"s  c #2FF317",
"d  c #22FD12",
"f  c #2EFD14",
"g  c #23F31C",
"h  c #2EF61A",
"j  c #2EFF19",
"k  c #33F414",
"l  c #34FC13",
"z  c #3CFE12",
"x  c #33F41D",
"c  c #3BF61B",
"v  c #34FC1A",
"b  c #3CFC1C",
"n  c #3AEF2E",
"m  c #2BFB2B",
"M  c #36F323",
"N  c #3BF622",
"B  c #37FF21",
"V  c #3BFC22",
"C  c #37FC28",
"Z  c #3FFF34",
"A  c #41E900",
"S  c #46EA0D",
"D  c #49FF05",
"F  c #41F40C",
"G  c #49F30C",
"H  c #41FC0B",
"J  c #41ED12",
"K  c #4CEF18",
"L  c #55EF1B",
"P  c #42F416",
"I  c #43FD14",
"U  c #4BFF15",
"Y  c #40F11C",
"T  c #4CF41B",
"R  c #41FD1A",
"E  c #4CFA1D",
"W  c #53F91D",
"Q  c #5DFC1B",
"!  c #46EE23",
"~  c #55EE23",
"^  c #44F323",
"/  c #4BF524",
"(  c #45FC23",
")  c #4CFF22",
"_  c #47F12E",
"`  c #4BF229",
"'  c #43FF29",
"]  c #4DF82D",
"[  c #54F023",
"{  c #50F826",
"}  c #57F42B",
"|  c #5BF428",
" . c #51F82E",
".. c #43EB36",
"X. c #4EEC35",
"o. c #43F130",
"O. c #4FF231",
"+. c #48FD36",
"@. c #4FF53B",
"#. c #58F536",
"$. c #50FF32",
"%. c #5CF739",
"&. c #5CFF39",
"*. c #60E82C",
"=. c #62FF3E",
"-. c #6ADB58",
";. c #5FFB42",
":. c #72FE45",
">. c #70FD4F",
",. c #6BEC54",
"<. c #6BF355",
"1. c #BAFFB6",
"2. c #FFFFFF",
"3. c #FFFFFF",
"4. c #FFFFFF",
"5. c #FFFFFF",
"6. c #FFFFFF",
"7. c #FFFFFF",
"8. c #FFFFFF",
"9. c #FFFFFF",
"0. c #FFFFFF",
"q. c #FFFFFF",
"w. c #FFFFFF",
"e. c #FFFFFF",
"r. c #FFFFFF",
"t. c #FFFFFF",
"y. c #FFFFFF",
"u. c #FFFFFF",
"i. c #FFFFFF",
"p. c #FFFFFF",
"a. c #FFFFFF",
"s. c #FFFFFF",
"d. c #FFFFFF",
"f. c #FFFFFF",
"g. c #FFFFFF",
"h. c #FFFFFF",
"j. c #FFFFFF",
"k. c #FFFFFF",
"l. c #FFFFFF",
"z. c #FFFFFF",
"x. c #FFFFFF",
"c. c #FFFFFF",
"v. c #FFFFFF",
"b. c #FFFFFF",
"n. c #FFFFFF",
"m. c #FFFFFF",
"M. c #FFFFFF",
"N. c #FFFFFF",
"B. c #FFFFFF",
"V. c #FFFFFF",
"C. c #FFFFFF",
"Z. c #FFFFFF",
"A. c #FFFFFF",
"S. c #FFFFFF",
"D. c #FFFFFF",
"F. c #FFFFFF",
"G. c #FFFFFF",
"H. c #FFFFFF",
"J. c #FFFFFF",
"K. c #FFFFFF",
"L. c #FFFFFF",
"P. c #FFFFFF",
"I. c #FFFFFF",
"U. c #FFFFFF",
"Y. c #FFFFFF",
"T. c #FFFFFF",
"R. c #FFFFFF",
"E. c #FFFFFF",
"W. c #FFFFFF",
"Q. c #FFFFFF",
"!. c #FFFFFF",
"~. c #FFFFFF",
"^. c #FFFFFF",
"/. c #FFFFFF",
"(. c #FFFFFF",
"). c #FFFFFF",
"_. c #FFFFFF",
"`. c #FFFFFF",
"'. c #FFFFFF",
/* pixels */
"'.'.'.'.'.'.'.'.'.'.'.'.'.'.'.'.'.'.'.'.'.'.'.'.'.'.'.'.'.'.'.'.(.'._.'.'._._._._./.T.T.G.!.T.(.'.'.'.'.'.'.'.'.'.'.'.'.'.'.'.'.'.'.'.'.'.'.'.'.'.'.'.'.'.'.'.'.'.'.(.'.'.",
"'.'.'.'.'.'.'.'.'.'.'.'.'.'.'.'.'.'.'.'.'.'.'.'.'.'.'.'.'.'.'.'.).`.L.d.h.L.`.W.'./.'.'.L.(._.(.'.'.'.'.'.'.'.'.'.'.'.'.'.'.'.'.'.'.'.'.'.'.'.'.'.'.'.'.'.'.'.'.'.'.'.'.'.",
"'.'.'.'.'.'.'.'.'.'.'.'.'.'.'.'.'.'.'.'.'.'.'.'.'.'.'.'.'.'.'.'.'.'._.'.(.`.(./._.C.P.'.`.'._.`.'.'.'.'.'.'.'.'.'.'.'.'.'.'.'.'.'.'.'.'.'.'.'.'.'.'.'.'.'.'.'.'.'.'.'.'.'.",
"'.'.'.'.'.'.'.'.'.'.'.'.'.'.'.'.'.'.'.'.'.'.'.'.'.'.'.'.'.'.'.'.P.J._.'._._.T.'.'.(.G.`.`._.'.E.'.'.'.'.'.'.'.'.'.'.'.'.'.'.'.'.'.'.'.'.'.'.'.'.'.'.'.'.'.'.'.'.'.'.'.'.'.",
"'.'.'.'.'.'.'.'.'.'.'.'.'.'.'.'.'.'.'.'.'.'.'.'.'.'.'.'.'.'.'.'.'.'.'.(.(.(.'.`.'._._.`.'._.(.R.'.'.'.'.'.'.'.'.'.'.'.'.'.'.'.'.'.'.'.'.'.'.'.'.'.'.'.'.'.'.'.'.'.'.'.'.'.",
"'.'.'.'.'.'.'.'.'.'.'.'.'.'.'.'.'.'.'.'.'.'.'.'.'.'.'.'.'.'.'.'./.(.(.(.'._.'.(.6._.T.`.'.T.'./.'.'.'.'.'.'.'.'.'.'.'.'.'.'.'.'.'.'.'.'.'.'.'.'.'.'.'.'.'.'.'.'.'.'.'.'.'.",
"'.'.'.'.'.'.'.'.'.'.'.'.'.'.'.'.'.'.'.'.'.'.'.'.'.'.'.'.'.'.'.'._._.`.S.1.<., 1 ;./.T.L._._.'.(.'.'.'.'.'.'.'.'.'.'.'.'.'.'.'.'.'.'.'.'.'.'.'.'.'.'.'.'.'.'.'.'.'.'.'.'.'.",
"'.'.'.'.'.'.'.'.'.'.'.'.'.'.'.'.'.'.'.'.'.'.'.'.'.'.'.'.'.'.'.'.3 4 t r 0 4 3 3 # V._.h.L._.'._.'.'.'.'.'.'.'.'.'.'.'.'.'.'.'.'.'.'.'.'.'.'.'.'.'.'.'.'.'.'.'.'.'.~.'.'.'.",
"'.'.'.'.'.'.'.'.'.'.'.'.'.'.'.'.'.`.H.T._.P.`.(.L.u._.'.I._.z O 4 4 4 4 4 4 4 4 4 '.(.'.(.'.(._.'.'.'.'.'.'.'.'.'.'.'.'.'.'.'.'.'.'.'.'.'.'.'.'.'.'.'.'.'.'.'.'.'.'.'.'.'.",
"'.'.'.'.'.'.'.'.'.'.'.'.'.'.'.'.m.'.p._.Z.V._._.U.U.(.F./.Z.$ G 4 4 4 4 4 4 4 4 4 '.`.'.'._./.'.'.'.'.'.'.'.'.'.'.'.'.'.'.'.'.'.'.'.'.'.'.'.'.'.'.'.'.'.'.'.'.'.'.'.'.'.'.",
"'.'.'.'.'.'.'.'.'.'.'.'.'.'.'.'.'.h.'./._._.b.P.v.q # 3 E.U.% 0 4 4 4 4 4 4 4 4 2 '.`.'.'.'.(._.'.'.'.'.'.'.'.'.'.'.'.'.'.'.'.'.'.'.'.'.'.'.'.'.'.'.'.'.'.'.'.'.'.(.'.'.'.",
"'.'.'.'.'.'.'.'.'.'.'.'.'.'.'.'.D.T.T.K._._.(.3 e # @.0 ).4.K $ 0 4 4 4 4 0 4 4 4 '.(.'.'.'./.'.'.'.'.'.'.'.'.'.'.'.'.'.'.'.'.'.'.'.'.'.'.'.'.'.'.'.'.'.'.'.'.'.'.'.'.'.'.",
"'.'.'.'.'.'.'.'.'.'.'.'.'.'.'.'.(.T._.`.p.R.4 l 2 3 4 ..P.'._.O 4 4 4 4 4 4 4 4 4 '.`.'.'._./.'.'.'.'.'.'.'.'.'.'.'.'.'.'.'.'.'.'.'.'.'.'.'.'.'.'.'.'.'.'.'.'.'.'.'.'.'.'.",
"'.'.'.'.'.'.'.'.'.'.'.'.'.'.'.'._.(.d.!.Q # = 7 C $ 2 = 8 '.N.U 4 4 4 0 4 4 4 4 4 '.(.'.'.'.(._.'.'.'.'.'.'.'.'.'.'.'.'.'.'.'.'.'.'.'.'.'.'.'.'.'.'.'.'.'.'.'.'.'.'.'.'.'.",
"'.'.'.'.'.'.'.'.'.'.'.'.'.'.'.'.C.G.v.0 # l 3 l # o q q o '.g._.4 4 4 4 4 4 0 4 4 '.(.'.'._.(.'.'.'.'.'.'.'.'.'.'.'.'.'.'.'.'.'.'.'.'.'.'.'.'.'.'.'.'.'.'.'.'.'.'.'.'.'.'.",
"'.'.'.'.'.'.'.'.'.'.'.'.'.'.'.'.`.| % , T 4 $ 3 4 | # 2 4 : '.L.4 4 4 4 4 4 4 4 4 '.`.'.(.'./.'.'.'.'.'.'.'.'.'.'.'.'.'.'.'.'.'.'.'.'.'.'.'.'.'.'.'.'.'.'.'.'.'.'.'.'.'.'.",
"'.'.'.'.'.'.'.'.L._.(._._.L.(.S.L.W 8 7 7 $ 4 M 3 $ 3 P 4 $ V._.q 2 0 3 8 k # h $ _._.`.'.G.`._.'.'.'.'.'.'.'.'.'.'.'.'.'.'.'.'.'.'.'.'.'.'.'.'.'.'.'.'.'.'.'.'.'.'.'.'.'.",
"'.'.'.'.'.'.'.'.'.).(.f._._._.!._.C.# V w 0 3 r F 7 r I 1 # %.).Q.m d 3 o U $ 0 4 '.'.`._.H.`._.'.'.'.'.'.'.'.'.'.'.'.'.'.'.'.'.'.'.'.'.'.'.'.'.'.'.'.'.'.'.'.'.'.'.'.'.'.",
"'.'.'.'.'.'.'.'.(.'.'.`.S.(.F 1 R./.'.O b q 0 $ 0 $ 7 4 , 4 3 '._.F : # [ 3 e 4 4 `.'.`._.P.'.'.'.'.'.'.'.'.'.'.'.'.'.'.'.'.'.'.'.'.'.'.'.'.'.'.'.'.'.'.'.'.'.'.'.'.'.'.'.",
"'.'.'.'.'.'.'.'.d.(.M.K._.e.6 +.R P.'._.O V l 3 4 % $ 4 k 0 0 x.d.L.$ %.z # # l > D.(.'._./.'.'.'.'.'.'.'.'.'.'.'.'.'.'.'.'.'.'.'.'.'.'.'.'.'.'.'.'.'.'.'.'.'.'.'.~.'.'.'.",
"'.'.'.'.'.'.'.'._.(._.`.`.r 8 ; 0 t A.'._.O ' 7 e n 0 q % # : C V.'.6 1 3 8 e $ ,.L.`.'._.(.'.'.'.'.'.'.'.'.'.'.'.'.'.'.'.'.'.'.'.'.'.'.'.'.'.'.'.'.'.'.'.'.'.'.'.'.'.'.'.",
"'.'.'.'.'.'.'.'._.h.G.T.P o f $ r # j L.'.'.# q 7 N 3 4 $ $ ~ o T.H.(.1 # 3 `._.2./.!._.'.(._.`.'.'.'.'.'.'.'.'.'.'.'.'.'.'.'.'.'.'.'.'.'.'.'.'.'.'.'.'.'.'.'.'.'.'.'.'.'.",
"'.'.'.'.'.'.'.'.E.(.E.'.* { k q 1 v # t (./.s.W $ 3 $ 3 7 w ) 4 T.`._.`.E.k._.w.(._.R.'.(.`.'.`.'.'.'.'.'.'.'.'.'.'.'.'.'.'.'.'.'.'.'.'.'.'.'.'.'.'.'.'.'.'.'.'.'.~.'.'.`.",
"'.'.'.'.'.'.'.'.'.T.~.# 4 4 # r 0 4 w * R R._.G.* 4 j 3 H q o 6 v.'.V.L.(._.h.'._.'.!.'.(./._.'.'.'.'.'.'.'.'.'.'.'.'.'.'.'.'.'.'.'.'.'.'.'.'.'.'.'.'.'.'.'.'.'.'.'.'.'.'.",
"/.~._.'.'.'.'.'._.'.# 3 # ! q # d 0 A / $ D V.U.d.k + ` 3 $ w '.'.'.'.'.'.'.'.'.'.'.'.'.'.'.'.'.'.'.'.'.'.'.'.'.'.'.'.'.'.'.'.'.'.'.'.'.'.'.'.'.'.'.'.'.'.'.'.'.'.'.`.'.'.",
"/.'.'.'.`.(.~.~.`.F.&.^ 0 > 6 q 2 4 $ 4 V X D S.'.A.O.o 3 _._.S.'.'.'.'.'.'.'.'.'.'.'.'.'.'.'.'.'.'.'.'.'.'.'.'.'.'.'.'.'.'.'.'.'.'.'.'.'.'.'.'.'.'.'.'.'.'.'.'.'.'.'.'.'.",
"_.'.(./././.(.(._.6 o 4 3 1 0 4 0 q # # 0 $ . D `.T.s.'.T.'.y._.'.'.'.'.'.'.'.'.'.'.'.'.'.'.'.'.'.'.'.'.'.'.'.'.'.'.'.'.'.'.'.'.'.'.'.'.'.'.'.'.'.'.'.'.'.'.'.'.'.'.'.'.'.",
"'.'././.(.'.`.'.A.+.I 2 b 7 o 7 2 g t 8 3 4 x 3 2 F.V.R.'._.(.K.'.'.'.'.'.'.'.'.'.'.'.'.'.'.'.'.'.'.'.'.'.'.'.'.'.'.'.'.'.'.'.'.'.'.'.'.'.'.'.'.'.'.'.'.'.'.'.'.'.'.'.'.'.",
"'././.(.'._.T._./.# # 7 & t 3 T t # a L q # 0 / U T._.'.`./.G._.'.'.'.'.'.'.'.'.'.'.'.'.'.'.'.'.'.'.'.'.'.'.'.'.'.'.'.'.'.'.'.'.'.'.'.'.'.'.'.'.'.'.'.'.'.'.'.'.'.'.'.'.'.",
"'././.'._._.'./._.B.T._.i $ $ 8 $ 4 # a z # # A o C._.P.d.T.'.(.'.'.'.'.'.'.'.'.'.'.'.'.'.'.'.'.'.'.'.'.'.'.'.'.'.'.'.'.'.'.'.'.'.'.'.'.'.'.'.'.'.'.'.'.'.'.'.'.'.'.'.'.'.",
"'.~.(.'.U.'.D.6.# '.'.K.E./.E # : ..4 # g 0 3 0 `._.(.L.(.k.'.S.'.'.'.'.'.'.'.'.'.'.'.'.'.'.'.'.'.'.'.'.'.'.'.'.'.'.'.'.'.'.'.'.'.'.'.'.'.'.'.'.'.'.'.'.'.'.'.'.'._.'.'.'.",
"_.~.`.'._./.8.-.6 8 # '.'.'.S.T.R.9 $ z * q 4 5 '.'.T.'.u._.C.'.'.'.'.'.'.'.'.'.'.'.'.'.'.'.'.'.'.'.'.'.'.'.'.'.'.'.'.'.'.'.'.'.'.'.'.'.'.'.'.'.'.'.'.'.'.'.'.'.'.(.'.'.'.",
"C._.'./.`.(.7.0 $ 3 4 , <.2.(._.E.T.(./ 3 3 V (.'.'.'.'.'.'.'.'.'.'.'.'.'.'.'.'.'.'.'.'.'.'.'.'.'.'.'.'.'.'.'.'.'.'.'.'.'.'.'.'.'.'.'.'.'.'.'.'.'.'.'.'.'.'.'.'.'.'.(.'.'.",
"'.(.'.L.(.Y.:.@ k l 3 # 3 0 0 8 '.L./.).'.T.s.(.'.'.'.'.'.'.'.'.'.'.'.'.'.'.'.'.'.'.'.'.'.'.'.'.'.'.'.'.'.'.'.'.'.'.'.'.'.'.'.'.'.'.'.'.'.'.'.'.'.'.'.'.'.'.'.'.'.'.'.'.'.",
"_._.L.'._._.7 3 0 4 4 4 $ # # $ S 3 9._.L.a.^.j.'.'.'.'.'.'.'.'.'.'.'.'.'.'.'.'.'.'.'.'.'.'.'.'.'.'.'.'.'.'.'.'.'.'.'.'.'.'.'.'.'.'.'.'.'.'.'.'.'.'.'.'.'.'.'.'.'.'.'.'.'.",
"'._.G.`._._.O 4 7 7 r k e w t R ^ $ d 5 _.U.'.E.'.'.'.'.'.'.'.'.'.'.'.'.'.'.'.'.'.'.'.'.'.'.'.'.'.'.'.'.'.'.'.'.'.'.'.'.'.'.'.'.'.'.'.'.'.'.'.'.'.'.'.'.'.'.'.'.'.'.'.'.'.",
"`._.'.C.'.T.$ 7 3 4 7 7 4 4 3 # 0 # F 3 0 p.U.'.'.'.'.'.'.'.'.'.'.'.'.'.'.'.'.'.'.'.'.'.'.'.'.'.'.'.'.'.'.'.'.'.'.'.'.'.'.'.'.'.'.'.'.'.'.'.'.'.'.'.'.'.'.'.'.'.'.'.'.'.'.",
"/.(.T.C.'.e.z r 3 3 4 2 4 r 7 3 O V 3 4 o `.z.!.'.'.'.'.'.'.'.'.'.'.'.'.'.'.'.'.'.'.'.'.'.'.'.'.'.'.'.'.'.'.'.'.'.'.'.'.'.'.'.'.'.'.'.'.'.'.'.'.'.'.'.'.'.'.'.'.'.'.'.'.'.",
"(.`.T.S.(.} s @ j 7 7 2 2 8 q 8 0 1 * e < _.'.C.'.'.'.'.'.'.'.'.'.'.'.'.'.'.'.'.'.'.'.'.'.'.'.'.'.'.'.'.'.'.'.'.'.'.'.'.'.'.'.'.'.'.'.'.'.'.'.'.'.'.'.'.'.'.'.'.'.'.'.'.'.",
"T.d.T.(.(.o 4 r 0 4 3 4 4 3 3 4 $ t O.o /.'._._.'.'.'.'.'.'.'.'.'.'.'.'.'.'.'.'.'.'.'.'.'.'.'.'.'.'.'.'.'.'.'.'.'.'.'.'.'.'.'.'.'.'.'.'.'.'.'.'.'.'.'.'.'.'.'.'.'.~.'.'.'.",
"_.G._.`.'.@ 8 3 4 4 0 4 4 4 4 4 t 1 3 z L.'._.'.'.'.'.'.'.'.'.'.'.'.'.'.'.'.'.'.'.'.'.'.'.'.'.'.'.'.'.'.'.'.'.'.'.'.'.'.'.'.'.'.'.'.'.'.'.'.'.'.'.'.'.'.'.'.'.'.'.'.'.'.'.",
"'.`.(.C.L.R ] w 3 2 4 3 4 4 3 4 r 7 l 3 /.D././.'.'.'.'.'.'.'.'.'.'.'.'.'.'.'.'.'.'.'.'.'.'.'.'.'.'.'.'.'.'.'.'.'.'.'.'.'.'.'.'.'.'.'.'.'.'.'.'.'.'.'.'.'.'.'.'.'.'.'.'.'.",
"!._.`.'.'.r.`.R.'.'.'.'.'.'.'.'.S.E.(.s._.'.'.`.'.'.'.'.'.'.'.'.'.'.'.'.'.'.'.'.'.'.'.'.'.'.'.'.'.'.'.'.'.'.'.'.'.'.'.'.'.'.'.'.'.'.'.'.'.'.'.'.'.'.'.'.'.'.'.'.'.(.'.'.'.",
"/._.(._.(.~.'.'.(.'.(.(.(.(.(.'.(._.T.U.N.~.'.U.'.'.'.'.'.'.'.'.'.'.'.'.'.'.'.'.'.'.'.'.'.'.'.'.'.'.'.'.'.'.'.'.'.'.'.'.'.'.'.'.'.'.'.'.'.'.'.'.'.'.'.'.'.'.'.'.'.'.'.'.'.",
"G.T.'._.'.A.U.(.(.(.(.'.(.(.'.(.(.~.^.G._.L.L./.'.'.'.'.'.'.'.'.'.'.'.'.'.'.'.'.'.'.'.'.'.'.'.'.'.'.'.'.'.'.'.'.'.'.'.'.'.'.'.'.'.'.'.'.'.'.'.'.'.'.'.'.'.'.'.'.'.'.'.'.'.",
"(._.(.E.5.^ e 3 3 3 3 3 3 3 3 3 2 r w o U.(./.'.'.'.'.'.'.'.'.'.'.'.'.'.'.'.'.'.'.'.'.'.'.'.'.'.'.'.'.'.'.'.'.'.'.'.'.'.'.'.'.'.'.'.'.'.'.'.'.'.'.'.'.'.'.'.'.'.'.'.'.'.'.",
"_.(.'.(.L.r r $ r q 8 r t q q q i z 4 # _.'._._.'.'.'.'.'.'.'.'.'.'.'.'.'.'.'.'.'.'.'.'.'.'.'.'.'.'.'.'.'.'.'.'.'.'.'.'.'.'.'.'.'.'.'.'.'.'.'.'.'.'.'.'.'.'.'.'.'.'.'.'.'.",
"_.E.'.(._.1 v 3 3 3 3 3 3 $ $ 3 $ 3 O X._ e.`.'.'.'.'.'.'.'.'.'.'.'.'.'.'.'.'.'.'.'.'.'.'.'.'.'.'.'.'.'.'.'.'.'.'.'.'.'.'.'.'.'.'.'.'.'.'.'.'.'.'.'.'.'.'.'.'.'.'.'.'.'.'.",
"/._.S._.G.'.6 4 t I # 2 r $ F r c 1 # G 4 W.C.U.'.'.'.'.'.'.'.'.'.'.'.'.'.'.'.'.'.'.'.'.'.'.'.'.'.'.'.'.'.'.'.'.'.'.'.'.'.'.'.'.'.'.'.'.'.'.'.'.'.'.'.'.'.'.'.'.'.'.'.'.'.",
"(._./._.(._.# 4 $ 2 $ t q 2 0 O # B t < * e.'.H.'.'.'.'.'.'.'.'.'.'.'.'.'.'.'.'.'.'.'.'.'.'.'.'.'.'.'.'.'.'.'.'.'.'.'.'.'.'.'.'.'.'.'.'.'.'.'.'.'.'.'.'.'.'.'.'.'.'.'.'.'.",
"'._.'.'.'.T.# 0 1 4 $ 4 @ 3 t * ) o 3 0 # T.U.(.'.'.'.'.'.'.'.'.'.'.'.'.'.'.'.'.'.'.'.'.'.'.'.'.'.'.'.'.'.'.'.'.'.'.'.'.'.'.'.'.'.'.'.'.'.'.'.'.'.'.'.'.'.'.'.'.'.'.'.'.'.",
"`._._.R.'._.# r r 2 b * 0 # 4 ^ # 2 V 3 (.z.U.(.'.'.'.'.'.'.'.'.'.'.'.'.'.'.'.'.'.'.'.'.'.'.'.'.'.'.'.'.'.'.'.'.'.'.'.'.'.'.'.'.'.'.'.'.'.'.'.'.'.'.'.'.'.'.'.'.'.(.'.'.'.",
"`.(.'.S.)._.4 @ t P N # 0 @.1 o f { /.U._./.9.`.'.'.'.'.'.'.'.'.'.'.'.'.'.'.'.'.'.'.'.'.'.'.'.'.'.'.'.'.'.'.'.'.'.'.'.'.'.'.'.'.'.'.'.'.'.'.'.'.'.'.'.'.'.'.'.'.'.'.'.'.'.",
"/._._.L.`.~.>.$ 3 O   R # o , '._.V.h.D.D.q '.'.'.'.'.'.'.'.'.'.'.'.'.'.'.'.'.'.'.'.'.'.'.'.'.'.'.'.'.'.'.'.'.'.'.'.'.'.'.'.'.'.'.'.'.'.'.'.'.'.'.'.'.'.'.'.'.'.'.'.'.'.'.",
"/._._.(.(.'.0.4 # 0 N O ] `.(._.'._.I O X.8 i '.'.'.'.'.'.'.'.'.'.'.'.'.'.'.'.'.'.'.'.'.'.'.'.'.'.'.'.'.'.'.'.'.'.'.'.'.'.'.'.'.'.'.'.'.'.'.'.'.'.'.'.'.'.'.'.'.'.'.'.'.'.",
"/._.'.^.P.'.'.2 l J /.'.(.).p.U.1 4 # f 2 # q d '.'.'.'.'.'.'.'.'.'.'.'.'.'.'.'.'.'.'.'.'.'.'.'.'.'.'.'.'.'.'.'.'.'.'.'.'.'.'.'.'.'.'.'.'.'.'.'.'.'.'.'.'.'.'.'.'.'.'.'.'.",
"'.'.'.'.'.'.'.'.C._._.(.(.'.# c q 4 l 4 1 f 4 3 9.'.'.H.E.'._.).'.'.'.'.'.'.'.'.'.'.'.'.'.'.'.'.'.'.'.'.'.'.'.'.'.'.'.'.'.'.'.'.'.'.'.'.'.'.'.'.'.'.'.'.'.'.'.'.'.~.`.'.'.",
"'.'.'.'.'.'.'.'.'.~._.7 3 8 l # 4 = # H q # l 2 #.'.T.d.`._.P.'.'.'.'.'.'.'.'.'.'.'.'.'.'.'.'.'.'.'.'.'.'.'.'.'.'.'.'.'.'.'.'.'.'.'.'.'.'.'.'.'.'.'.'.'.'.'.'.'.'.'.'.'.'.",
"'.'.'.'.'.'.'.'.'.# q $ $ = r t f 3 8 3 4 p 3 l . _.U.d.'.T.C.'.'.'.'.'.'.'.'.'.'.'.'.'.'.'.'.'.'.'.'.'.'.'.'.'.'.'.'.'.'.'.'.'.'.'.'.'.'.'.'.'.'.'.'.'.'.'.'.'.'.'.'.'.'.",
"'.'.'.'.'.'.'.'.F.# b 7 . | # # 3 I 3 O 6 J : # $.`._.C.'._.D.'.'.'.'.'.'.'.'.'.'.'.'.'.'.'.'.'.'.'.'.'.'.'.'.'.'.'.'.'.'.'.'.'.'.'.'.'.'.'.'.'.'.'.'.'.'.'.'.'.'.'.'.'.'.",
"'.'.'.'.'.'.'.'.`.O.& $ z v 7 U 3 q 3 6 f 3 8 R r.L./.'.'.'.'.'.'.'.'.'.'.'.'.'.'.'.'.'.'.'.'.'.'.'.'.'.'.'.'.'.'.'.'.'.'.'.'.'.'.'.'.'.'.'.'.'.'.'.'.'.'.'.'.'.'.'.'.'.'.",
"'.'.'.'.'.'.'.'.h.'.V 7 # $ q X f # S P $ O E t.U.G.S.'.'.`.'._.'.'.'.'.'.'.'.'.'.'.'.'.'.'.'.'.'.'.'.'.'.'.'.'.'.'.'.'.'.'.'.'.'.'.'.'.'.'.'.'.'.'.'.'.'.'.'.'.'.'.'.'.'.",
"'.'.'.'.'.'.'.'.`.q.O ! ^ b 1 I 3 l 4 9 8 R 5._.'.^.(.`.(.(.`._.'.'.'.'.'.'.'.'.'.'.'.'.'.'.'.'.'.'.'.'.'.'.'.'.'.'.'.'.'.'.'.'.'.'.'.'.'.'.'.'.'.'.'.'.'.'.'.'.'.'.'.'.'.",
"'.'.'.'.'.'.'.'.U.'._.# # 4 1 3 4 r f o E c.T._.u.T._.`.'.'.R.'.'.'.'.'.'.'.'.'.'.'.'.'.'.'.'.'.'.'.'.'.'.'.'.'.'.'.'.'.'.'.'.'.'.'.'.'.'.'.'.'.'.'.'.'.'.'.'.'.'.~.'.'.'.",
"'.'.'.'.'.'.'.'.`.U.T.6.l @ S 4 # t 0 7 V.U.J.!.'.'.'.'.'.'.'.'.'.'.'.'.'.'.'.'.'.'.'.'.'.'.'.'.'.'.'.'.'.'.'.'.'.'.'.'.'.'.'.'.'.'.'.'.'.'.'.'.'.'.'.'.'.'.'.'.'.'.'.'.'.",
"'.'.'.'.'.'.'.'.`.!._.K.- r # w z # 3 _.E.C._.L.'.'.'.'.'.'.'.'.'.'.'.'.'.'.'.'.'.'.'.'.'.'.'.'.'.'.'.'.'.'.'.'.'.'.'.'.'.'.'.'.'.'.'.'.'.'.'.'.'.'.'.'.'.'.'.'.'.'.'.'.'.",
"'.'.'.'.'.'.'.'.!.'.F.'.'.3 O h 0 4 ~.E.'._.D.'.'.'.'.'.'.'.'.'.'.'.'.'.'.'.'.'.'.'.'.'.'.'.'.'.'.'.'.'.'.'.'.'.'.'.'.'.'.'.'.'.'.'.'.'.'.'.'.'.'.'.'.'.'.'.'.'.'.(.'.'.'.",
"'.'.'.'.'.'.'.'.p._.`.`.`.'.3 q 4 _./.H._._.T.~.'.'.'.'.'.'.'.'.'.'.'.'.'.'.'.'.'.'.'.'.'.'.'.'.'.'.'.'.'.'.'.'.'.'.'.'.'.'.'.'.'.'.'.'.'.'.'.'.'.'.'.'.'.'.'.'.'.'.'.'.'.",
"'.'.'.'.'.'.'.'.(.(._.n.'.E._.H V.E._._.h.'.R.'.'.'.'.'.'.'.'.'.'.'.'.'.'.'.'.'.'.'.'.'.'.'.'.'.'.'.'.'.'.'.'.'.'.'.'.'.'.'.'.'.'.'.'.'.'.'.'.'.'.'.'.'.'.'.'.'.'.'.'.'.'.",
"'.'.'.'.'.'.'.'._.r._._.r._.G.!.U.V._.'._.y.'.G.'.'.'.'.'.'.'.'.'.'.'.'.'.'.'.'.'.'.'.'.'.'.'.'.'.'.'.'.'.'.'.'.'.'.'.'.'.'.'.'.'.'.'.'.'.'.'.'.'.'.'.'.'.'.'.'.'.'.'.'.'.",
"'.'.'.'.'.'.'.'.A._.`.j.T.V.`._.J._.L._.R._.B.(.'.'.'.'.'.'.'.'.'.'.'.'.'.'.'.'.'.'.'.'.'.'.'.'.'.'.'.'.'.'.'.'.'.'.'.'.'.'.'.'.'.'.'.'.'.'.'.'.'.'.'.'.'.'.'.'.'.'.'.'.'.",
"'.'.'.'.'.'.'.'.'.(.P.'.U._.L./.R./._./.'.L._._.'.'.'.'.'.'.'.'.'.'.'.'.'.'.'.'.'.'.'.'.'.'.'.'.'.'.'.'.'.'.'.'.'.'.'.'.'.'.'.'.'.'.'.'.'.'.'.'.'.'.'.'.'.'.'.'.'.'.'.'.'.",
"'.'.'.'.'.'.'.'.'.'.'.'.'.'.'.'.'.'.'.'.'.'.'.'.'.'.'.'.'.'.'.'.'.'.'.'.'.'.'.'.'.'.'.'.'.'.'.'.'.'.'.'.'.'.'.'.'.'.'.'.'.'.'.'.'.'.'.'.'.'.'.'.'.'.'.'.'.'.'.'.'.'.'.'.'.",
"'.'.'.'.'.'.'.'.'.'.'.'.'.'.'.'.'.'.'.'.'.'.'.'.'.'.'.'.'.'.'.'.'.'.'.'.'.'.'.'.'.'.'.'.'.'.'.'.'.'.'.'.'.'.'.'.'.'.'.'.'.'.'.'.'.'.'.'.'.'.'.'.'.'.'.'.'.'.'.'.'.'.'.'.'.",
"'.'.'.'.'.'.'.'.'.'.'.'.'.'.'.'.'.'.'.'.'.'.'.'.'.'.'.'.'.'.'.'.'.'.'.'.'.'.'.'.'.'.'.'.'.'.'.'.'.'.'.'.'.'.'.'.'.'.'.'.'.'.'.'.'.'.'.'.'.'.'.'.'.'.'.'.'.'.'.'.'.'.'.'.'.",
"'.'.'.'.'.'.'.'.'.'.'.'.'.'.'.'.'.'.'.'.'.'.'.'.'.'.'.'.'.'.'.'.'.'.'.'.'.'.'.'.'.'.'.'.'.'.'.'.'.'.'.'.'.'.'.'.'.'.'.'.'.'.'.'.'.'.'.'.'.'.'.'.'.'.'.'.'.'.'.'.'.~.'.'.'.",
"'.'.'.'.'.'.'.'.'.'.'.'.'.'.'.'.'.'.'.'.'.'.'.'.'.'.'.'.'.'.'.'.'.'.'.'.'.'.'.'.'.'.'.'.'.'.'.'.'.'.'.'.'.'.'.'.'.'.'.'.'.'.'.'.'.'.'.'.'.'.'.'.'.'.'.'.'.'.'.'.'.'.'.'.'.",
"'.'.'.'.'.'.'.'.'.'.'.'.'.'.'.'.'.'.'.'.'.'.'.'.'.'.'.'.'.'.'.'.'.'.'.'.'.'.'.'.'.'.'.'.'.'.'.'.'.'.'.'.'.'.'.'.'.'.'.'.'.'.'.'.'.'.'.'.'.'.'.'.'.'.'.'.'.'.'.'.'.'.'.'.`.",
"'.'.'.'.'.'.'.'.'.'.'.'.'.'.'.'.'.'.'.'.'.'.'.'.'.'.'.'.'.'.'.'.'.'.'.'.'.'.'.'.'.'.'.'.'.'.'.'.'.'.'.'.'.'.'.'.'.'.'.'.'.'.'.'.'.'.'.'.'.'.'.'.'.'.'.'.'.'.'.'.'.~.'.'.'.",
"'.'.'.'.'.'.'.'.'.'.'.'.'.'.'.'.'.'.'.'.'.'.'.'.'.'.'.'.'.'.'.'.'.'.'.'.'.'.'.'.'.'.'.'.'.'.'.'.'.'.'.'.'.'.'.'.'.'.'.'.'.'.'.'.'.'.'.'.'.'.'.'.'.'.'.'.'.'.'.'.'.'.'.'.'.",
"'.'.'.'.'.'.'.'.'.'.'.'.'.'.'.'.'.'.'.'.'.'.'.'.'.'.'.'.'.'.'.'.'.'.'.'.'.'.'.'.'.'.'.'.'.'.'.'.'.'.'.'.'.'.'.'.'.'.'.'.'.'.'.'.'.'.'.'.'.'.'.'.'.'.'.'.'.'.'.'.'._.'.~.'.",
"'.'.'.'.'.'.'.'.'.'.'.'.'.'.'.'.'.'.'.'.'.'.'.'.'.'.'.'.'.'.'.'.'.'.'.'.'.'.'.'.'.'.'.'.'.'.'.'.'.'.'.'.'.'.'.'.'.'.'.'.'.'.'.'.'.'.'.'.'.'.'.'.'.'.'.'.'.'.'.'.~.`.~.'.~.",
"'.'.'.'.'.'.'.'.'.'.'.'.'.'.'.'.'.'.'.'.'.'.'.'.'.'.'.'.'.'.'.'.'.'.'.'.'.'.'.'.'.'.'.'.'.'.'.'.'.'.'.'.'.'.'.'.'.'.'.'.'.'.'.'.'.'.'.'.'.'.'.'.'.'.'.'.'.'.'.'.'.'.~.'.'.",
"'.'.'.'.'.'.'.'.'.'.'.'.'.'.'.'.'.'.'.'.'.'.'.'.'.'.'.'.'.'.'.'.'.'.'.'.'.'.'.'.'.'.'.'.'.'.'.'.'.'.'.'.'.'.'.'.'.'.'.'.'.'.'.'.'.'.'.'.'.'.'.'.'.'.'.'.'.'.'.'.'.~.'.'.'.",
"'.'.'.'.'.'.'.'.'.'.'.'.'.'.'.'.'.'.'.'.'.'.'.'.'.'.'.'.'.'.'.'.'.'.'.'.'.'.'.'.'.'.'.'.'.'.'.'.'.'.'.'.'.'.'.'.'.'.'.'.'.'.'.'.'.'.'.'.'.'.'.'.'.'.'.'.'.'.'.'.~.'.'.'.~."
};
