/* XPM */
static char *_____________[] = {
/* columns rows colors chars-per-pixel */
"85 85 22 1",
"  c #29FF00",
". c #29FF01",
"X c #2BFE00",
"o c #2AFF00",
"O c #2BFF00",
"+ c #2BFE01",
"@ c #2AFF02",
"# c #2CFE00",
"$ c #2CFF00",
"% c #2DFF00",
"& c #2DFF01",
"* c #2CFF02",
"= c #FFFFFF",
"- c #FFFFFF",
"; c #FFFFFF",
": c #FFFFFF",
"> c #FFFFFF",
", c #FFFFFF",
"< c #FFFFFF",
"1 c #FFFFFF",
"2 c #FFFFFF",
"3 c #FFFFFF",
/* pixels */
"3333333333333333333333333333333333333333333333333333333333333333333333333333333333333",
"3333333333333333333333333333333333333333333333333333333333333333333333333333333333333",
"3333333333333333333333333333333333333333333333333333333333333333333333333333333333333",
"3333333333333333333333333333333333333333333333333333333333333333333333333333333333333",
"3333333333333333333333333333333333333333333333333333333333333333333333333333333333333",
"3333333333333333333333333333333333333333333333333333333333333333333333333333333333333",
"3333333333333333333333333333333333333    33333333333333333333333333333333333333333333",
"33333333333333333333333333333333# ## ### 33333333333333333333333333333333333333333333",
"333333333333333333333333333333 ##########33333333333333333333333333333333333333333333",
"333333333333333333333333333333###########33333333333333333333333333333333333333333333",
"3333333333333333333333333###33###########33333333333333333333333333333333333333333333",
"33333333333333333333333  # #33 ##########33333333333333333333333333333333333333333333",
"3333333333333333333-33   ###333##########33333333333333333333333333333333333333333333",
"33333333333333333333####### #33 #########33333333333333333333333333333333333333333333",
"3333333333333333333  ## #####333#########33333333333333333333333333333333333333333333",
"33333333333333333 #  # *## *  33#########33333333333333333333333333333333333333333333",
"33333333333333333##  #  # # *#33 *##*### 33333333333333333333333333333333333333333333",
"333333333333333333# #### *###* 33*# # ## 33333333333333333333333333333333333333333333",
"33333333333333 #333  ###*   #*#33###  ## 333-3333333333333333333333333333333333333333",
"33333333333333###333## ** ## * 333# # ## 33333333333333333333333333333333333333333333",
"3333333333333# *  333    ## *###33 ## #  33333333333333333333333333333333333333333333",
"333333333333## ####333####*##*##333#  33333333333333333333333333333333333333333333333",
"333333333333####### 333##* *   *33333333333333333333333333333333333333333333333333333",
"33333333333 ####### #333##**### 33333333333>33333333333333333333333333333333333333333",
"3333333333X #########*333#  ###333333333333333333333333333333333333333333333333333333",
"3333333333######*## *# 333## 33333333333333333333333333333333333333333333333333333333",
"333333333 ### ####*####*33333-3333333333333333333333333333333333333333333333333333333",
"333333333 ## # # #  #### 333333333333333333333333333333333333333333333333333333333333",
"333333333##  ######  ####333333333333333333333333333333333333333333333333333333333333",
"333333333333### *#* # #  333333333333333333333333333333333333333333333333333333333333",
"33333333#33333 #* ######3333333333333333333333333333333333333333333333333333333333333",
"3333333  ##333333### #*#3333333333333333333333333333333333333333333333333333333333333",
"3333333#**# #333333##X 33333333333333333333333333333333333333333333333333333333333333",
"333333    ## # #333333333333333333333333333333333333333333333333333333333333333333333",
"333333#   *# * #  3333333333333333333333333333333333333333333333333333333333333333333",
"333333 #** *## # # #33333333333333333333333333333333333333333333333333333333333333333",
"333333 # #  *###### #33>3333333333333333333333333333333333333333333333333333333333333",
"333333 ##*##### ## # 3333333333333333333333333333333333333333333333333333333333333333",
"33333  ## ### ##* ##X3333333333333333333333333333333333333333333333333333333333333333",
"33333 *##  *# #  ###33333333333333333333333333333333333333333333333333333333333333333",
"33333  #############33333333333333333333333333333333333333333333333333333333333333333",
"33333   ######### # 33333333333333333333333333333333333333333333333333333333333333333",
"3333333333333333333333333333333333333333333333333333333333333333333333333333333333333",
"3333333333333333333333333333333333333333333333333333333333333333333333333333333333333",
"3333333333333333333333333333333333333333333333333333333333333333333333333333333333333",
"33333 XX######## #  33333333333333333333333333333333333333333333333333333333333333333",
"33333#X######### ###-3333333333333333333333333333333333333333333333333333333333333333",
"33333## ## ## #####  3333333333333333333333333333333333333333333333333333333333333333",
"333333 #  ## #   ##  3333333333333333333333333333333333333333333333333333333333333333",
"333333### ## ##*# ## 3333333333333333333333333333333333333333333333333333333333333333",
"33-333# ## # ***#### 3333333333333333333333333333333333333333333333333333333333333333",
"333333 ##    #####* 33333333333333333333333333333333333333333333333333333333333333333",
"333333##** ###*   3333333333333333333333333333333333333333333333333333333333333333333",
"333333 #### #  333333 333333333333333333333333333333333333333333333333333333333333333",
"3333333####  33333##   33333333333333333333333333333333333333333333333333333333333333",
"3-33333 *#333333# ## ## 3333333333333333333333333333333333333333333333333333333333333",
"33333333333333## ### ###3333333333333333333333333333333333333333333333333333333333333",
"33333333333# # # ####### 3-3333333333333333333333333333333333333333333333333333333333",
"333333333######### * ##* 333333333333333333333333333333333333333333333333333333333333",
"333333333  # ## ##  ##*# 333333333333333333333333333333333333333333333333333333333333",
"333333333# ##* # # ## # 3333333333333333333333333333333333333333333333333333333333333",
"3333333333##* *##### # 333# ##3333333333333333333333333333333333333333333333333333333",
"3333333333  #  *####*#333####  333333333333333333333333333333333333333333333333333333",
"33333333333##   ##*# 333###  ## 33333333333333333333333333333333333333333333333333333",
"33333333,333  # ## #333  ###### 33333333333333333333333333333333333333333333333333333",
"333333333333##X  # 333 ####### #33333333333333333333333333333333333333333333333333333",
"33333333=3333XXX# 333  # # # *#*33333333333333333333333333333333333333333333333333333",
"33333333333333XX#333#*# ### ###333333333333333333333333333333333333333333333333333333",
"333333333=33333 333## ##**##  #333333333333333333333333333333333333333333333333333333",
"333333333333333333# ##  # * * 3333333333333333333333333333333333333333333333333333333",
"3333333333-333333 ###### # ###3333333333333333333333333333333333333333333333333333333",
"333333333333333333  ##*# #### 3333333333333333333333333333333333333333333333333333333",
"3333333333333333333  # ##*  *33333333333333333333333333333333333333333333333333333333",
"33333333333333333333####*#* #33333333333333333333333333333333333333333333333333333333",
"3333333333333333333333X ### 333333333333333333333333333333333333333333333333333333333",
"33333333333333333333333   *#333333333333333333333333333333333333333333333333333333333",
"3333333333333333333333333X  333333333333333333333333333333333333333333333333333333333",
"3333333333333333333-33333333333333333333333333333333333333333333333333333333333333333",
"3333333333333333333333>33333333333333333333333333333333333333333333333333333333333333",
"3333333333333333333333333333333333333333333333333333333333333333333333333333333333333",
"3333333333333333333333333333333333333333333333333333333333333333333333333333333333333",
"3333333333333333333333333333333333333333333333333333333333333333333333333333333333333",
"3333333333333333333333333333333333333333333333333333333333333333333333333333333333333",
"3333333333333333333333333333333333333333333333333333333333333333333333333333333333333",
"3333333333333333333333333333333333333333333333333333333333333333333333333333333333333"
};
