/* XPM */
static char *_____________[] = {
/* columns rows colors chars-per-pixel */
"85 85 187 2",
"   c #1BEE00",
".  c #05F300",
"X  c #0CF700",
"o  c #04FF00",
"O  c #0CFF00",
"+  c #16F500",
"@  c #1FF400",
"#  c #14FF00",
"$  c #1CFE00",
"%  c #1DFE0A",
"&  c #24EA00",
"*  c #2CED03",
"=  c #2EE608",
"-  c #26ED0C",
";  c #2DEE0A",
":  c #3BE305",
">  c #35EC03",
",  c #3AEC03",
"<  c #31E40C",
"1  c #34EB0C",
"2  c #3CED0E",
"3  c #23F400",
"4  c #2CF401",
"5  c #23FE00",
"6  c #2BFE01",
"7  c #21F60E",
"8  c #2BF40A",
"9  c #25FD0C",
"0  c #2CFD0A",
"q  c #34F501",
"w  c #3FF203",
"e  c #33FD02",
"r  c #39FD03",
"t  c #33F50B",
"y  c #3CF40C",
"u  c #33FD0B",
"i  c #3BFD0C",
"p  c #25E810",
"a  c #2CEF15",
"s  c #36EB14",
"d  c #3CEE12",
"f  c #35EB1D",
"g  c #25F714",
"h  c #2EF215",
"j  c #22FD12",
"k  c #2EFD14",
"l  c #23F31C",
"z  c #2EF61A",
"x  c #2EFF19",
"c  c #33F414",
"v  c #33FC13",
"b  c #3CFD12",
"n  c #35F41C",
"m  c #3BF61D",
"M  c #34FC1A",
"N  c #3CFD1C",
"B  c #3AEF2E",
"V  c #2BFB2B",
"C  c #36F323",
"Z  c #3BF622",
"A  c #37FF21",
"S  c #3BFD22",
"D  c #37FC28",
"F  c #3FFF34",
"G  c #41E900",
"H  c #46EA0D",
"J  c #49FF05",
"K  c #41F40B",
"L  c #49F30C",
"P  c #41FD0C",
"I  c #42ED12",
"U  c #40EE1B",
"Y  c #4CEF18",
"T  c #51E61A",
"R  c #55EF1B",
"E  c #43F515",
"W  c #42FE14",
"Q  c #4BFF15",
"!  c #40F11C",
"~  c #4CF41B",
"^  c #42FD1B",
"/  c #4CFA1D",
"(  c #53F91D",
")  c #5DFC1B",
"_  c #46EE23",
"`  c #4CE729",
"'  c #55EE23",
"]  c #45F323",
"[  c #4BF524",
"{  c #44FB22",
"}  c #4BFF23",
"|  c #47F12E",
" . c #4BF52C",
".. c #43FF29",
"X. c #4DF82D",
"o. c #54F023",
"O. c #50F826",
"+. c #57F42B",
"@. c #5BF428",
"#. c #52FB2E",
"$. c #43EB36",
"%. c #4EEB34",
"&. c #5AEE3A",
"*. c #43F130",
"=. c #4FF231",
"-. c #4BFC35",
";. c #4FF53B",
":. c #58F536",
">. c #5EF23E",
",. c #5CFF39",
"<. c #60E82C",
"1. c #60F63F",
"2. c #62FF3E",
"3. c #6BDC59",
"4. c #5EFA41",
"5. c #72FE45",
"6. c #70FD4F",
"7. c #6BEC54",
"8. c #6BF355",
"9. c #FFFFFF",
"0. c #FFFFFF",
"q. c #FFFFFF",
"w. c #FFFFFF",
"e. c #FFFFFF",
"r. c #FFFFFF",
"t. c #FFFFFF",
"y. c #FFFFFF",
"u. c #FFFFFF",
"i. c #FFFFFF",
"p. c #FFFFFF",
"a. c #FFFFFF",
"s. c #FFFFFF",
"d. c #FFFFFF",
"f. c #FFFFFF",
"g. c #FFFFFF",
"h. c #FFFFFF",
"j. c #FFFFFF",
"k. c #FFFFFF",
"l. c #FFFFFF",
"z. c #FFFFFF",
"x. c #FFFFFF",
"c. c #FFFFFF",
"v. c #FFFFFF",
"b. c #FFFFFF",
"n. c #FFFFFF",
"m. c #FFFFFF",
"M. c #FFFFFF",
"N. c #FFFFFF",
"B. c #FFFFFF",
"V. c #FFFFFF",
"C. c #FFFFFF",
"Z. c #FFFFFF",
"A. c #FFFFFF",
"S. c #FFFFFF",
"D. c #FFFFFF",
"F. c #FFFFFF",
"G. c #FFFFFF",
"H. c #FFFFFF",
"J. c #FFFFFF",
"K. c #FFFFFF",
"L. c #FFFFFF",
"P. c #FFFFFF",
"I. c #FFFFFF",
"U. c #FFFFFF",
"Y. c #FFFFFF",
"T. c #FFFFFF",
"R. c #FFFFFF",
"E. c #FFFFFF",
"W. c #FFFFFF",
"Q. c #FFFFFF",
"!. c #FFFFFF",
"~. c #FFFFFF",
"^. c #FFFFFF",
"/. c #FFFFFF",
"(. c #FFFFFF",
"). c #FFFFFF",
"_. c #FFFFFF",
"`. c #FFFFFF",
"'. c #FFFFFF",
"]. c #FFFFFF",
"[. c #FFFFFF",
"{. c #FFFFFF",
"}. c #FFFFFF",
"|. c #FFFFFF",
" X c #FFFFFF",
".X c #FFFFFF",
"XX c #FFFFFF",
/* pixels */
"XXXXXXXXXXXXXXXXXXXXXXXXXXXXXXXXXXXXXXXXXXXXXXXXXXXXXXXXXXXXXXXXXXXXXXXX X X X X X{. X XY.'./.}.XXXXXXXXXXXXXXXXXXXXXXXXXXXXXXXXXXXXXXXXXXXXXXXXXXXXXXXXXXXXXXXXXXXXXXXXXX",
"XXXXXXXXXXXXXXXXXXXXXXXXXXXXXXXXXXXXXXXXXXXXXXXXXXXXXXXXXXXXXXXX_.XXW.x.b.W.XX'.XX{.XX XW.XX XXXXXXXXXXXXXXXXXXXXXXXXXXXXXXXXXXXXXXXXXXXXXXXXXXXXXXXXXXXXXXXXXXXXXXXXXXXXX",
"XXXXXXXXXXXXXXXXXXXXXXXXXXXXXXXXXXXXXXXXXXXXXXXXXXXXXXXXXXXXXXXX[.XX XXXXX.X{.{. XJ.W.XX).XX X.XXXXXXXXXXXXXXXXXXXXXXXXXXXXXXXXXXXXXXXXXXXXXXXXXXXXXXXXXXXXXXXXXXXXXXXXXXX",
"XXXXXXXXXXXXXXXXXXXXXXXXXXXXXXXXXXXXXXXXXXXXXXXXXXXXXXXXXXXXXXXXW.R.XX X X X X X X}.Y..XXX X X).XXXXXXXXXXXXXXXXXXXXXXXXXXXXXXXXXXXXXXXXXXXXXXXXXXXXXXXXXXXXXXXXXXXXXXXXXX",
"XXXXXXXXXXXXXXXXXXXXXXXXXXXXXXXXXXXXXXXXXXXXXXXXXXXXXXXXXXXXXXXX XXXXX}.Q.}.XX.XXX X X.X X XXX).XXXXXXXXXXXXXXXXXXXXXXXXXXXXXXXXXXXXXXXXXXXXXXXXXXXXXXXXXXXXXXXXXXXXXXXXXX",
"XXXXXXXXXXXXXXXXXXXXXXXXXXXXXXXXXXXXXXXXXXXXXXXXXXXXXXXXXXXXXXXX{.{.XXXXXX XXXXXt. X/.XXXX/.XX{.XXXXXXXXXXXXXXXXXXXXXXXXXXXXXXXXXXXXXXXXXXXXXXXXXXXXXXXXXXXXXXXXXXXXXXXXXX",
"XXXXXXXXXXXXXXXXXXXXXXXXXXXXXXXXXXXXXXXXXXXXXXXXXXXXXXXXXXXXXXXX X[.XXP.0.8.> @ 4.{./.Y.XX XXX}.XXXXXXXXXXXXXXXXXXXXXXXXXXXXXXXXXXXXXXXXXXXXXXXXXXXXXXXXXXXXXXXXXXXXXXXXXX",
"XXXXXXXXXXXXXXXXXXXXXXXXXXXXXXXXXXXXXXXXXXXXXXXXXXXXXXXXXXXXXXXX5 6 u e q 6 5 5 # H. Xx.W. XXX}.XXXXXXXXXXXXXXXXXXXXXXXXXXXXXXXXXXXXXXXXXXXXXXXXXXXXXXXXXXXXXXXXXX].XXXXXX",
"XXXXXXXXXXXXXXXXXXXXXXXXXXXXXXXX XXXY. X XQ..X}.W.h. XXX!. Xb O 6 6 6 6 6 6 6 6 6 XXXXXXXX XQ. XXXXXXXXXXXXXXXXXXXXXXXXXXXXXXXXXXXXXXXXXXXXXXXXXXXXXXXXXXXXXXXXXXXXXXXXXXX",
"XXXXXXXXXXXXXXXXXXXXXXXXXXXXXXXXS.XXk. XK.H. X X~.~.}.E.{.N.5 K 6 6 6 6 6 6 e 6 6 XX.XXXXXXX{.XXXXXXXXXXXXXXXXXXXXXXXXXXXXXXXXXXXXXXXXXXXXXXXXXXXXXXXXXXXXXXXXXXXXXXXXXXXX",
"XXXXXXXXXXXXXXXXXXXXXXXXXXXXXXXX Xb.XXW./.[.Z.T.C.r # 5 './.% q 6 6 6 6 6 6 6 e 6 XXXX XXX X}.XXXXXXXXXXXXXXXXXXXXXXXXXXXXXXXXXXXXXXXXXXXXXXXXXXXXXXXXXXXXXXXXXXXXXXXXXXXX",
"XXXXXXXXXXXXXXXXXXXXXXXXXXXXXXXXP./. XE. XXXXX5 y # %.e |.e.Y $ e 6 6 6 6 6 6 6 6 XX{.XXXX X{. XXXXXXXXXXXXXXXXXXXXXXXXXXXXXXXXXXXXXXXXXXXXXXXXXXXXXXXXXXXXXXXXXXXXXXXXXXX",
"XXXXXXXXXXXXXXXXXXXXXXXXXXXXXXXXXX X/..Xk.(.6 k 4 5 6 $.Q.XX X# 6 6 6 6 6 6 6 6 6 XX{.XXXX X{.XXXXXXXXXXXXXXXXXXXXXXXXXXXXXXXXXXXXXXXXXXXXXXXXXXXXXXXXXXXXXXXXXXXXXXXXXXXX",
"XXXXXXXXXXXXXXXXXXXXXXXXXXXXXXXX X}.x.'.) # * 0 D $ q - q XXH.Q 6 6 6 6 6 6 6 6 6 XXXXXXXXXX}.XXXXXXXXXXXXXXXXXXXXXXXXXXXXXXXXXXXXXXXXXXXXXXXXXXXXXXXXXXXXXXXXXXXXXXXXXXXX",
"XXXXXXXXXXXXXXXXXXXXXXXXXXXXXXXXH.Y.V.e # v 6 M # O r r o XXv. X6 6 6 e 6 6 6 6 6 XXXXXXXXXX{. XXXXXXXXXXXXXXXXXXXXXXXXXXXXXXXXXXXXXXXXXXXXXXXXXXXXXXXXXXXXXXXXXXXXX].XXXX",
"XXXXXXXXXXXXXXXXXXXXXXXXXXXXXXXX.X@.9 > ~ 0 # 6 5 o.# 4 6 , XXW.6 6 6 6 6 e 6 6 6 XX.X XXX X}.XXXXXXXXXXXXXXXXXXXXXXXXXXXXXXXXXXXXXXXXXXXXXXXXXXXXXXXXXXXXXXXXXXXXXXXXXXXX",
"XXXXXXXXXXXXXXXXW. X}. X/.W.}.I.W.( r 8 0 $ 6 C 5 $ 5 E 5 5 z. Xr * e 5 q c # z #  X X{. Xb..X XXXXXXXXXXXXXXXXXXXXXXXXXXXXXXXXXXXXXXXXXXXXXXXXXXXXXXXXXXXXXXXXXXXXXXXXXXX",
"XXXXXXXXXXXXXXXX X'.}.c. X X X'. XJ.# S 0 e 5 e K 0 u W 3 # 2._.`.V j % o Q 5 e 6 XX X.XXXY.XX XXXXXXXXXXXXXXXXXXXXXXXXXXXXXXXXXXXXXXXXXXXXXXXXXXXXXXXXXXXXXXXXXXXXXXXXXXX",
"XXXXXXXXXXXXXXXX}.XXXXXXP.XXw 3 (.W. XO m e e 5 e $ 0 6 1 6 5  X[.K w # o.$ y 5 6 .XXXXX XQ.XX XXXXXXXXXXXXXXXXXXXXXXXXXXXXXXXXXXXXXXXXXXXXXXXXXXXXXXXXXXXXXXXXXXXXXXXXXXX",
"XXXXXXXXXXXXXXXXk.XXD.E. Xd.9 F ^ Q.XXXXO S u 9 6 % $ 6 c e e B.J.W.$ :.b $ $ M < I.XXXX X{.XX.XXXXXXXXXXXXXXXXXXXXXXXXXXXXXXXXXXXXXXXXXXXXXXXXXXXXXXXXXXXXXXXXXXXXXXXXXXX",
"XXXXXXXXXXXXXXXX XXX X.XXXu q > e u W. X XO ..0 y B e r 9 # q S V. X5 3 5 4 y $ 7.I..X X XXX XXXXXXXXXXXXXXXXXXXXXXXXXXXXXXXXXXXXXXXXXXXXXXXXXXXXXXXXXXXXXXXXXXXXXXXXXXXXX",
"XXXXXXXXXXXXXXXX Xx.x./.d o k $ t # x W.XXXX# r 0 Z 5 6 # @ ' o  XE.}.5 # 5 .X Xq.}.'.XX X}.}.XXXXXXXXXXXXXXXXXXXXXXXXXXXXXXXXXXXXXXXXXXXXXXXXXXXXXXXXXXXXXXXXXXXXXXXXXXXX",
"XXXXXXXXXXXXXXXX).XX). X4 [ c r 5 M # i }.).z.( $ 5 # 5 0 y } 6 /..X X.XL.M. Xs.XXXX).XXXX{. X.XXXXXXXXXXXXXXXXXXXXXXXXXXXXXXXXXXXXXXXXXXXXXXXXXXXXXXXXXXXXXXXXXXXXX].XXXX",
"XXXXXXXXXXXXXXXXXX/.}.# 6 6 # u e 6 t 4 ^ ). XY.* 6 M 5 P e o 9 V.XXH.W.XX Xb.}. X X'.XX}.{.XXXXXXXXXXXXXXXXXXXXXXXXXXXXXXXXXXXXXXXXXXXXXXXXXXXXXXXXXXXXXXXXXXXXXXXXXXXXXX",
"{.{. X XXXXX X XXXXX# 5 # ] r # j e G [ $ J V.~.x.v +  .5 $ t  XXXXXXXXXXXXXXXXXXXXXXXXXXXXXXXXXXXXXXXXXXXXXXXXXXXXXXXXXXXXXXXXXXXXXXXXXXXXXXXXXXXXXXXXXXXXXXXXXXXXXXXXXXX",
"{.XXXXXXXX{.{.]..XU.,.{ e < 9 r 4 6 # e S X J P. XI.#.o 5 XX XP.XXXXXXXXXXXXXXXXXXXXXXXXXXXXXXXXXXXXXXXXXXXXXXXXXXXXXXXXXXXXXXXXXXXXXXXXXXXXXXXXXXXXXXXXXXXXXXXXXXXXXXXXXX",
" XXXXX{.{.}.{.XX X9 o 6 5 3 e 6 e r $ # e $ . J .X/.z. X X Xd. XXXXXXXXXXXXXXXXXXXXXXXXXXXXXXXXXXXXXXXXXXXXXXXXXXXXXXXXXXXXXXXXXXXXXXXXXXXXXXXXXXXXXXXXXXXXXXXXXXXXXXXXXXX",
"XXXX{.I.{.XXXXXXL.-.W 4 N 0 o u 4 l u q 5 6 n $ 4 U.H.(. X XXXE.XXXXXXXXXXXXXXXXXXXXXXXXXXXXXXXXXXXXXXXXXXXXXXXXXXXXXXXXXXXXXXXXXXXXXXXXXXXXXXXXXXXXXXXXXXXXXXXXXXXXXXXXXX",
" X}.{.}.XX X X X{.# # 0 & i 5 ~ i # g R e # e [ Q /. XXX'.{.Y. XXXXXXXXXXXXXXXXXXXXXXXXXXXXXXXXXXXXXXXXXXXXXXXXXXXXXXXXXXXXXXXXXXXXXXXXXXXXXXXXXXXXXXXXXXXXXXXXXXX].XXXXXX",
"XX{.{.XX X X X{. XG. X Xs $ # q # e # g b # # G o G. XQ.x. XXXXXXXXXXXXXXXXXXXXXXXXXXXXXXXXXXXXXXXXXXXXXXXXXXXXXXXXXXXXXXXXXXXXXXXXXXXXXXXXXXXXXXXXXXXXXXXXXXXXXXXXXXXXXXX",
"XX{.].XX~.XXI.t.#  XXXE.).{./ # , $.e # l e 5 e .X XXXY.}.m.XXP.XXXXXXXXXXXXXXXXXXXXXXXXXXXXXXXXXXXXXXXXXXXXXXXXXXXXXXXXXXXXXXXXXXXXXXXXXXXXXXXXXXXXXXXXXXXXXXXXXXXXXXXXXX",
" X{.XXXX X{.u.3.9 q # XX XXXP. X).> $ b * r e 7 XXXX/.XXh. XJ.XXXXXXXXXXXXXXXXXXXXXXXXXXXXXXXXXXXXXXXXXXXXXXXXXXXXXXXXXXXXXXXXXXXXXXXXXXXXXXXXXXXXXXXXXXXXXXXXXXXXXXXXXXXX",
"J. X X{.}. Xy.e $ 5 6 1 8.w.}. X).~.}.[ 5 5 ^ {.XXXXXXXXXXXXXXXXXXXXXXXXXXXXXXXXXXXXXXXXXXXXXXXXXXXXXXXXXXXXXXXXXXXXXXXXXXXXXXXXXXXXXXXXXXXXXXXXXXXXXXXXXXXXXXXXXXXXXXXXXX",
"XX}.XX{.{.^.5.+ z v 5 $ 5 e e q XXI.{. XXX/.z.XXXXXXXXXXXXXXXXXXXXXXXXXXXXXXXXXXXXXXXXXXXXXXXXXXXXXXXXXXXXXXXXXXXXXXXXXXXXXXXXXXXXXXXXXXXXXXXXXXXXXXXXXXXXXXXXXXXXXXXXXXXX",
" X.XJ.XX X X0 5 q 6 6 5 $ # # # H 5 u. XW.l.}.n.XXXXXXXXXXXXXXXXXXXXXXXXXXXXXXXXXXXXXXXXXXXXXXXXXXXXXXXXXXXXXXXXXXXXXXXXXXXXXXXXXXXXXXXXXXXXXXXXXXXXXXXXXXXXXXXXXXXXXXXXXX",
" X XY.XX X XO 6 e 0 u c y t b W ] # g %  X~. X).XXXXXXXXXXXXXXXXXXXXXXXXXXXXXXXXXXXXXXXXXXXXXXXXXXXXXXXXXXXXXXXXXXXXXXXXXXXXXXXXXXXXXXXXXXXXXXXXXXXXXXXXXXXXXXXXXXXXXXXXXX",
"XX}. XJ. X X# 0 5 5 0 e 6 4 $ $ e # K 5 e k.~. XXXXXXXXXXXXXXXXXXXXXXXXXXXXXXXXXXXXXXXXXXXXXXXXXXXXXXXXXXXXXXXXXXXXXXXXXXXXXXXXXXXXXXXXXXXXXXXXXXXXXXXXXXXXXXXXXXXXXXXXXXX",
"W.XX/.J.XXf.i i 5 5 5 6 6 u 0 5 # S 5 6 o .XN.'.XXXXXXXXXXXXXXXXXXXXXXXXXXXXXXXXXXXXXXXXXXXXXXXXXXXXXXXXXXXXXXXXXXXXXXXXXXXXXXXXXXXXXXXXXXXXXXXXXXXXXXXXXXXXXXXXXXXXXXXXXX",
"XX.X XI.XX+.a 3 x 0 0 4 4 e q r e 3 * y 2  X XJ.XXXXXXXXXXXXXXXXXXXXXXXXXXXXXXXXXXXXXXXXXXXXXXXXXXXXXXXXXXXXXXXXXXXXXXXXXXXXXXXXXXXXXXXXXXXXXXXXXXXXXXXXXXXXXXXXXXXXXXXXXX",
"/.z.~.}.{.o e u 6 6 6 6 6 5 5 6 $ i =.o {.XXXX XXXXXXXXXXXXXXXXXXXXXXXXXXXXXXXXXXXXXXXXXXXXXXXXXXXXXXXXXXXXXXXXXXXXXXXXXXXXXXXXXXXXXXXXXXXXXXXXXXXXXXXXXXXXXXXXXXX].XXXXXX",
"[.Y. XXX X@ q 5 6 6 6 6 6 6 6 6 u 3 5 b W. X XXXXXXXXXXXXXXXXXXXXXXXXXXXXXXXXXXXXXXXXXXXXXXXXXXXXXXXXXXXXXXXXXXXXXXXXXXXXXXXXXXXXXXXXXXXXXXXXXXXXXXXXXXXXXXXXXXXXXXXXXXXXX",
" X.XXXJ.J.^ X.u 5 6 6 6 6 6 6 5 u u v 5 {.I.{.{.XXXXXXXXXXXXXXXXXXXXXXXXXXXXXXXXXXXXXXXXXXXXXXXXXXXXXXXXXXXXXXXXXXXXXXXXXXXXXXXXXXXXXXXXXXXXXXXXXXXXXXXXXXXXXXXXXXXXXXXXXX",
"'..XXX X Xf.XX(.XX X XXXXXXX XXXI.{.{.z.[.XXXX.XXXXXXXXXXXXXXXXXXXXXXXXXXXXXXXXXXXXXXXXXXXXXXXXXXXXXXXXXXXXXXXXXXXXXXXXXXXXXXXXXXXXXXXXXXXXXXXXXXXXXXXXXXXXXXXXXXXXXXXXXXX",
".X X{. X}.{. X.XXX}.XX}.XX}.XX}.{. X/.~.F.XX X/.XXXXXXXXXXXXXXXXXXXXXXXXXXXXXXXXXXXXXXXXXXXXXXXXXXXXXXXXXXXXXXXXXXXXXXXXXXXXXXXXXXXXXXXXXXXXXXXXXXXXXXXXXXXXXXXXXXXXXXXXXX",
"Y./.XX XXXL./.}.XX}.}.XX}.XX}.XX}.}. XY. XW.W.}.XXXXXXXXXXXXXXXXXXXXXXXXXXXXXXXXXXXXXXXXXXXXXXXXXXXXXXXXXXXXXXXXXXXXXXXXXXXXXXXXXXXXXXXXXXXXXXXXXXXXXXXXXXXXXXXXXXXXXXXXXX",
"}. XXX).t.{ y 5 5 $ 5 5 5 5 5 5 4 u 8 o ~.{.{.XXXXXXXXXXXXXXXXXXXXXXXXXXXXXXXXXXXXXXXXXXXXXXXXXXXXXXXXXXXXXXXXXXXXXXXXXXXXXXXXXXXXXXXXXXXXXXXXXXXXXXXXXXXXXXXXXXXXXXXXXXXX",
" X{.XX}.W.u u $ y r r r r r r r 1 W 6 #  XXX X XXXXXXXXXXXXXXXXXXXXXXXXXXXXXXXXXXXXXXXXXXXXXXXXXXXXXXXXXXXXXXXXXXXXXXXXXXXXXXXXXXXXXXXXXXXXXXXXXXXXXXXXXXXXXXXXXXXXX].XXXX",
" X).XX}. X3 m $ $ 5 $ $ 5 $ $ 5 $ 5 O $.| d.XXXXXXXXXXXXXXXXXXXXXXXXXXXXXXXXXXXXXXXXXXXXXXXXXXXXXXXXXXXXXXXXXXXXXXXXXXXXXXXXXXXXXXXXXXXXXXXXXXXXXXXXXXXXXXXXXXXXXXXXXXXXXX",
"}. XP. XY. X9 6 u W # 4 q 5 y 0 m 3 # L 6 |.J./.XXXXXXXXXXXXXXXXXXXXXXXXXXXXXXXXXXXXXXXXXXXXXXXXXXXXXXXXXXXXXXXXXXXXXXXXXXXXXXXXXXXXXXXXXXXXXXXXXXXXXXXXXXXXXXXXXXXXXXXXXX",
"XX[.{. X}. X$ 6 # q $ i e 0 e # # A i 2 * d. XT.XXXXXXXXXXXXXXXXXXXXXXXXXXXXXXXXXXXXXXXXXXXXXXXXXXXXXXXXXXXXXXXXXXXXXXXXXXXXXXXXXXXXXXXXXXXXXXXXXXXXXXXXXXXXXXXXXXXXXXXXXX",
"XX XXX.XXX X# u 6 6 $ 6 @ 5 i * } o 5 e # /.~.}.XXXXXXXXXXXXXXXXXXXXXXXXXXXXXXXXXXXXXXXXXXXXXXXXXXXXXXXXXXXXXXXXXXXXXXXXXXXXXXXXXXXXXXXXXXXXXXXXXXXXXXXXXXXXXXXXXXXXXXXXXX",
".X X X'. X X# u 0 4 N = 0 # 6 ] # 4 S 5 }.N./.}.XXXXXXXXXXXXXXXXXXXXXXXXXXXXXXXXXXXXXXXXXXXXXXXXXXXXXXXXXXXXXXXXXXXXXXXXXXXXXXXXXXXXXXXXXXXXXXXXXXXXXXXXXXXXXXXXXXXXXXXXXX",
"{.}. X(..X X6 3 t W Z # e ;.3 O k O.{.~. X{.a..XXXXXXXXXXXXXXXXXXXXXXXXXXXXXXXXXXXXXXXXXXXXXXXXXXXXXXXXXXXXXXXXXXXXXXXXXXXXXXXXXXXXXXXXXXXXXXXXXXXXXXXXXXXXXXXXXXXXXXXXXXX",
"{. X XW.XX].6.$ 5 O   ^ # o = XX XH.b.I.J.r XX XXXXXXXXXXXXXXXXXXXXXXXXXXXXXXXXXXXXXXXXXXXXXXXXXXXXXXXXXXXXXXXXXXXXXXXXXXXXXXXXXXXXXXXXXXXXXXXXXXXXXXXXXXXXXXXXXXXXXXXXXXX",
"{. X X}.}.XXp.5 $ 6 m O [ .X}. X X XW O %.q s XXXXXXXXXXXXXXXXXXXXXXXXXXXXXXXXXXXXXXXXXXXXXXXXXXXXXXXXXXXXXXXXXXXXXXXXXXXXXXXXXXXXXXXXXXXXXXXXXXXXXXXXXXXXXXXXXXXXXX].XXXX",
"{. X X[.Q.XX X6 c I {.XXXX|.k./.$ 6 # v 4 # r j XXXXXXXXXXXXXXXXXXXXXXXXXXXXXXXXXXXXXXXXXXXXXXXXXXXXXXXXXXXXXXXXXXXXXXXXXXXXXXXXXXXXXXXXXXXXXXXXXXXXXXXXXXXXXXXXXXXXXXXXXX",
"XXXXXXXXXXXXXXXXP. X XXX}. X# m r 6 v 6 3 k 5 6  X.XU.}.XXW.Q.M.XXXXXXXXXXXXXXXXXXXXXXXXXXXXXXXXXXXXXXXXXXXXXXXXXXXXXXXXXXXXXXXXXXXXXXXXXXXXXXXXXXXXXXXXXXXXXXXXXXXXXXXXXX",
"XXXXXXXXXXXXXXXX X}./.0 5 4 b # 6 ; # P r # v 4 u P.XX}. X{.x.f.XXXXXXXXXXXXXXXXXXXXXXXXXXXXXXXXXXXXXXXXXXXXXXXXXXXXXXXXXXXXXXXXXXXXXXXXXXXXXXXXXXXXXXXXXXXXXXXXXXXXXXXXXX",
"XXXXXXXXXXXXXXXXXX# e 5 $ 8 0 i k 5 e 5 6 d 5 v    X Xh.XX(.XX XXXXXXXXXXXXXXXXXXXXXXXXXXXXXXXXXXXXXXXXXXXXXXXXXXXXXXXXXXXXXXXXXXXXXXXXXXXXXXXXXXXXXXXXXXXXXXXXXXXXXXXXXXX",
"XXXXXXXXXXXXXXXXT.# A u . @.# # 5 P 6 O 9 I , # i  XXX.X X{. Xz.XXXXXXXXXXXXXXXXXXXXXXXXXXXXXXXXXXXXXXXXXXXXXXXXXXXXXXXXXXXXXXXXXXXXXXXXXXXXXXXXXXXXXXXXXXXXXXXXXXXXXXXXXX",
"XXXXXXXXXXXXXXXXXX=.& $ b M e / 5 r 6 7 k 5 q ^ ).].z. X XW.~. XXXXXXXXXXXXXXXXXXXXXXXXXXXXXXXXXXXXXXXXXXXXXXXXXXXXXXXXXXXXXXXXXXXXXXXXXXXXXXXXXXXXXXXXXXXXXXXXXXX].XXXXXX",
"XXXXXXXXXXXXXXXXx. XA u $ # q X k # d E 5 # ^ g.XX Xe 6 4 b /.h.XXXXXXXXXXXXXXXXXXXXXXXXXXXXXXXXXXXXXXXXXXXXXXXXXXXXXXXXXXXXXXXXXXXXXXXXXXXXXXXXXXXXXXXXXXXXXXXXXXXXXXXXXX",
"XXXXXXXXXXXXXXXX.Xa.O _ { m 5 W 5 c 6 K q N r. X X# 6 v r 6 O  XXXXXXXXXXXXXXXXXXXXXXXXXXXXXXXXXXXXXXXXXXXXXXXXXXXXXXXXXXXXXXXXXXXXXXXXXXXXXXXXXXXXXXXXXXXXXXXXXXXXXXXXXXX",
"XXXXXXXXXXXXXXXX~.XX X# # 5 3 5 6 u 0 O ^ V. X X# T 5 # e # 5 I XXXXXXXXXXXXXXXXXXXXXXXXXXXXXXXXXXXXXXXXXXXXXXXXXXXXXXXXXXXXXXXXXXXXXXXXXXXXXXXXXXXXXXXXXXXXXXXXXXXXXXXXXX",
"XXXXXXXXXXXXXXXX).~. Xw.M 3 E 6 m 3 r h ).M.XX9 6 e 5 5 ] m # i ~.H.[. X X.Xa.XX X XE. X X}. X).XXXXXXXXXXXXXXXXXXXXXXXXXXXXXXXXXXXXXXXXXXXXXXXXXXXXXXXXXXXXXXXXXXXXXXXXXX",
"XXXXXXXXXXXXXXXXXX'./.Q.: u # t $ i $ {.XX}.O 0 3 0 4 0 # e N 3 ].{.b $ 4 # W XXw.}.}.XX.X}. X{.XXXXXXXXXXXXXXXXXXXXXXXXXXXXXXXXXXXXXXXXXXXXXXXXXXXXXXXXXXXXXXXXXXXXXXXXXX",
"XXXXXXXXXXXXXXXX'. XU. X X5 O c O 5 R.}. Xo 0 4 6 0 > e # # # `  XXX5 6 5  .= 8 >.z.XXXXW.{. XXXXXXXXXXXXXXXXXXXXXXXXXXXXXXXXXXXXXXXXXXXXXXXXXXXXXXXXXXXXXXXXXXXXXXXXXXXXX",
"XXXXXXXXXXXXXXXXk. XXX.XXX.X5 e ^ XX X~.# 0 0 K 0 5 u 6 E 5 O {.{.L.m O # u 5 0 3 H. X}.W.{. XXXXXXXXXXXXXXXXXXXXXXXXXXXXXXXXXXXXXXXXXXXXXXXXXXXXXXXXXXXXXXXXXXXXXXXXXXXXX",
"XXXXXXXXXXXXXXXX}.}. XA. X). Xi  X X/.# e A $ 5 v 5 0 q : $ 4 ~.{.N 8 i U # O 6 5 .X XXX}..X X}.XXXXXXXXXXXXXXXXXXXXXXXXXXXXXXXXXXXXXXXXXXXXXXXXXXXXXXXXXXXXXXXXXXXXXXXXXX",
"XXXXXXXXXXXXXXXX Xa. X Xf. XW.).}.H.o W i # { 6 5 5 3 ^ 5 W H. X XO k q 0 e %.4 6  X/.}. XXX X}.XXXXXXXXXXXXXXXXXXXXXXXXXXXXXXXXXXXXXXXXXXXXXXXXXXXXXXXXXXXXXXXXXXXXXXXXXX",
"XXXXXXXXXXXXXXXXL. XXXc. XH.XX X.Xe ^ 3 5 u 3 #.e 0 $ m O t  Xx.$ $ =.e 3 6 5 5 5  X XI. X XXX{.XXXXXXXXXXXXXXXXXXXXXXXXXXXXXXXXXXXXXXXXXXXXXXXXXXXXXXXXXXXXXXXXXX].XXXXXX",
"XXXXXXXXXXXXXXXXXX}.{.XX/. XW.{. XY.y 5 - b 5 o y e O ; 5 9 U.}.e e O P # 5 h e 5 }.}.H. X XXXI.XXXXXXXXXXXXXXXXXXXXXXXXXXXXXXXXXXXXXXXXXXXXXXXXXXXXXXXXXXXXXXXXXXXXXXXXXX",
"XXXXXXXXXXXXXXXXXXXXXXXXXXXXXXXXI./.XX4 6 5 u # 5 5 b 5 0 C.XX X5 5 5 5 6 6 u 4 6 XX.XXXXXXX}.XXXXXXXXXXXXXXXXXXXXXXXXXXXXXXXXXXXXXXXXXXXXXXXXXXXXXXXXXXXXXXXXXXXXXXXXXXXX",
"XXXXXXXXXXXXXXXXXXXXXXXXXXXXXXXX}.P..X Xf $ e W #.O 8 W o  X.Xe 6 u u 6 3 5 5 u 4 XX}.XXXX X{. XXXXXXXXXXXXXXXXXXXXXXXXXXXXXXXXXXXXXXXXXXXXXXXXXXXXXXXXXXXXXXXXXXXXXXXXXXX",
"XXXXXXXXXXXXXXXXXXXXXXXXXXXXXXXX X~.V.d. XXX4 5 O 5 v b W././.o 4 u t t u 4 5 6 6 XXXXXXXX X{.XXXXXXXXXXXXXXXXXXXXXXXXXXXXXXXXXXXXXXXXXXXXXXXXXXXXXXXXXXXXXXXXXXXXXXXXXXXX",
"XXXXXXXXXXXXXXXXXXXXXXXXXXXXXXXX X|. XW.{.[. X9 b 5 u 5  X/.$ e 6 6 6 4 b u 5 5 6 XX}.XXXXXX}.XXXXXXXXXXXXXXXXXXXXXXXXXXXXXXXXXXXXXXXXXXXXXXXXXXXXXXXXXXXXXXXXXXXXXXXXXXXX",
"XXXXXXXXXXXXXXXXXXXXXXXXXXXXXXXXI.[.~.k. X{.z..XJ.6 # 0 }.Y.4 { 6 6 5 5 4 t e 5 6 XX.XXXXX X}. XXXXXXXXXXXXXXXXXXXXXXXXXXXXXXXXXXXXXXXXXXXXXXXXXXXXXXXXXXXXXXXXXXXXXXXXXXX",
"XXXXXXXXXXXXXXXXXXXXXXXXXXXXXXXXQ.XXi. X.X/.XX}. X X/..XW.5 b o & $ $ 5 4 u u 5 6 XXXXXXXXXX{.XXXXXXXXXXXXXXXXXXXXXXXXXXXXXXXXXXXXXXXXXXXXXXXXXXXXXXXXXXXXXXXXXXXXXXXXXXXX",
"XXXXXXXXXXXXXXXXXXXXXXXXXXXXXXXXI.[.XXXXh.~. XQ.K. XP.XXJ. Xb 9 >.= 5 6 6 0 u 5 5 XX.X XXX X}. XXXXXXXXXXXXXXXXXXXXXXXXXXXXXXXXXXXXXXXXXXXXXXXXXXXXXXXXXXXXXXXXXXXXX].XXXX",
"XXXXXXXXXXXXXXXXXXXXXXXXXXXXXXXXXX XM.b.XXXX XW.{.}./.XXH./.x. X9.&.4 6 5 4 e $ 6 XXXXXXXX X{.XXXXXXXXXXXXXXXXXXXXXXXXXXXXXXXXXXXXXXXXXXXXXXXXXXXXXXXXXXXXXXXXXXXXXXXXXXXX",
"XXXXXXXXXXXXXXXXXXXXXXXXXXXXXXXXXXXXXXXXXXXXXXXXXXXXXXXXXXXXXXXX X}. X XXXr.>.# 3.u.}. XXXXX{. XXXXXXXXXXXXXXXXXXXXXXXXXXXXXXXXXXXXXXXXXXXXXXXXXXXXXXXXXXXXXXXXXXXXXXX]. X",
"XXXXXXXXXXXXXXXXXXXXXXXXXXXXXXXXXXXXXXXXXXXXXXXXXXXXXXXXXXXXXXXX.XP.W.Q. X X.XH.u.I. X/.XX}.{. XXXXXXXXXXXXXXXXXXXXXXXXXXXXXXXXXXXXXXXXXXXXXXXXXXXXXXXXXXXXXXXXX].].].XX.X",
"XXXXXXXXXXXXXXXXXXXXXXXXXXXXXXXXXXXXXXXXXXXXXXXXXXXXXXXXXXXXXXXX XXXW.Y. X[. X X{. X X XXX{.{.XXXXXXXXXXXXXXXXXXXXXXXXXXXXXXXXXXXXXXXXXXXXXXXXXXXXXXXXXXXXXXXXXXXXXX].XXXX",
"XXXXXXXXXXXXXXXXXXXXXXXXXXXXXXXXXXXXXXXXXXXXXXXXXXXXXXXXXXXXXXXX/. XXX.X.XXXI.x. X X XXX.XW.XXXXXXXXXXXXXXXXXXXXXXXXXXXXXXXXXXXXXXXXXXXXXXXXXXXXXXXXXXXXXXXXXXXXXX].XXXXXX",
"XXXXXXXXXXXXXXXXXXXXXXXXXXXXXXXXXXXXXXXXXXXXXXXXXXXXXXXXXXXXXXXXY.W.{.XX XXXXXQ.XXXXXX{.W.{.XX XXXXXXXXXXXXXXXXXXXXXXXXXXXXXXXXXXXXXXXXXXXXXXXXXXXXXXXXXXXXXXXXX].XXXXXX]."
};
