/* XPM */
static char *_____________[] = {
/* columns rows colors chars-per-pixel */
"50 50 182 2",
"   c #000000",
".  c #010101",
"X  c #020202",
"o  c #030303",
"O  c #040404",
"+  c #050505",
"@  c #060606",
"#  c #070707",
"$  c #080808",
"%  c #090909",
"&  c #0A0A0A",
"*  c #0B0B0B",
"=  c #0D0D0D",
"-  c #0F0F0F",
";  c #101010",
":  c #111111",
">  c #121212",
",  c #131313",
"<  c #141414",
"1  c #151515",
"2  c #161616",
"3  c #171717",
"4  c #181818",
"5  c #191919",
"6  c #1A1A1A",
"7  c #1C1C1C",
"8  c #1D1D1D",
"9  c #1E1E1E",
"0  c #1F1F1F",
"q  c #212121",
"w  c #222222",
"e  c #232323",
"r  c #252525",
"t  c #272727",
"y  c #282828",
"u  c #292929",
"i  c #2A2A2A",
"p  c #2C2C2C",
"a  c #303030",
"s  c #313131",
"d  c #333333",
"f  c #343434",
"g  c #353535",
"h  c #373737",
"j  c #383838",
"k  c #393939",
"l  c #3A3A3A",
"z  c #3C3C3C",
"x  c #3D3D3D",
"c  c #3E3E3E",
"v  c #3F3F3F",
"b  c #414141",
"n  c #424242",
"m  c #434343",
"M  c #444444",
"N  c #454545",
"B  c #464646",
"V  c #494949",
"C  c #4A4A4A",
"Z  c #4B4B4B",
"A  c #4C4C4C",
"S  c #4D4D4D",
"D  c #4E4E4E",
"F  c #4F4F4F",
"G  c #505050",
"H  c #535353",
"J  c #545454",
"K  c #555555",
"L  c #565656",
"P  c #575757",
"I  c #585858",
"U  c #595959",
"Y  c #5A5A5A",
"T  c #5B5B5B",
"R  c #5D5D5D",
"E  c #5E5E5E",
"W  c #5F5F5F",
"Q  c #626262",
"!  c #636363",
"~  c #646464",
"^  c #686868",
"/  c #696969",
"(  c #6A6A6A",
")  c #6B6B6B",
"_  c #6C6C6C",
"`  c #6D6D6D",
"'  c #6F6F6F",
"]  c #707070",
"[  c #717171",
"{  c #727272",
"}  c #737373",
"|  c #777777",
" . c #787878",
".. c #797979",
"X. c #7A7A7A",
"o. c #7B7B7B",
"O. c #7D7D7D",
"+. c #7E7E7E",
"@. c #828282",
"#. c #848484",
"$. c #858585",
"%. c #868686",
"&. c #878787",
"*. c #888888",
"=. c #898989",
"-. c #8A8A8A",
";. c #8B8B8B",
":. c #8C8C8C",
">. c #8D8D8D",
",. c #8E8E8E",
"<. c #8F8F8F",
"1. c #909090",
"2. c #919191",
"3. c #949494",
"4. c #959595",
"5. c #969696",
"6. c #979797",
"7. c #989898",
"8. c #999999",
"9. c #9A9A9A",
"0. c #9C9C9C",
"q. c #9E9E9E",
"w. c #9F9F9F",
"e. c #A1A1A1",
"r. c #A2A2A2",
"t. c #A3A3A3",
"y. c #A4A4A4",
"u. c #A5A5A5",
"i. c #A8A8A8",
"p. c #AAAAAA",
"a. c #ABABAB",
"s. c #ACACAC",
"d. c #ADADAD",
"f. c #AEAEAE",
"g. c #B0B0B0",
"h. c #B3B3B3",
"j. c #B4B4B4",
"k. c #B7B7B7",
"l. c #B9B9B9",
"z. c #BABABA",
"x. c #BBBBBB",
"c. c #BCBCBC",
"v. c #BDBDBD",
"b. c #BEBEBE",
"n. c #C2C2C2",
"m. c #C3C3C3",
"M. c #C4C4C4",
"N. c #C6C6C6",
"B. c #C8C8C8",
"V. c #C9C9C9",
"C. c #CBCBCB",
"Z. c #CCCCCC",
"A. c #CDCDCD",
"S. c #CECECE",
"D. c #CFCFCF",
"F. c #D4D4D4",
"G. c #D5D5D5",
"H. c #D9D9D9",
"J. c #DADADA",
"K. c #DEDEDE",
"L. c #E4E4E4",
"P. c #E5E5E5",
"I. c #E6E6E6",
"U. c #E8E8E8",
"Y. c #E9E9E9",
"T. c #EAEAEA",
"R. c #EBEBEB",
"E. c #ECECEC",
"W. c #EEEEEE",
"Q. c #F1F1F1",
"!. c #F2F2F2",
"~. c #F3F3F3",
"^. c #F4F4F4",
"/. c #F6F6F6",
"(. c #F7F7F7",
"). c #F8F8F8",
"_. c #F9F9F9",
"`. c #FBFBFB",
"'. c #FCFCFC",
"]. c #FDFDFD",
"[. c #FEFEFE",
"{. c #FFFFFF",
/* pixels */
"{.{.{.{.{.{.{.{.{.{.{.{.{.{.[.[.W.C.a.&.~ m p ;   o 1 s Z ( >.h.G.^.{.{.{.{.{.{.{.{.{.{.{.{.[.{.{.{.",
"{.{.{.{.{.{.{.{.{.{.{.{.{.{.(.v.+.v : X                     X : v +.c.(.{.{.{.{.[.{.{.{.{.{.{.{.{.{.",
"{.{.{.{.{.{.{.{.{.{.{.{.{.A.P 0 O                                 O 9 K Z.{.{.{.{.{.{.{.{.{.{.{.{.{.",
"{.{.{.{.{.{.{.{.{.{.{.[.p.5 .                                         . 4 i.'.{.{.{.{.{.{.{.{.{.{.{.",
"{.{.{.{.{.{.{.{.{.{.{.t.3                                                 2 t.{.{.{.{.{.{.{.{.{.{.{.",
"{.{.{.{.{.{.{.{.{.{.v.6                                                     6 v.{.{.{.{.{.{.{.{.{.{.",
"{.{.{.{.{.{.{.{.{.T.i                                           .             u Y.{.{.{.{.{.{.{.{.{.",
"{.{.{.{.{.{.{.{.{.:.+                                                         + ;.{.{.{.{.{.{.{.{.{.",
"{.{.{.{.[.{.{.{.U.B .                                                           N Y.{.{.{.{.{.{.{.{.",
"{.{.{.{.{.{.{.{.m.q                                                             0 n.{.{.{.{.{.{.{.{.",
"{.{.{.{.{.{.{.{.u.%       .                                                     $ y.{.{.{.{.{.{.{.{.",
"{.{.{.{.{.{.{.'.&.                                                              . %.'.{.{.{.{.{.{.{.",
"{.{.{.{.{.{.{._.}                                                                 } (.{.{.{.{.{.{.{.",
"{.{.{.{.{.{.{.(./ .                                                               / (.{.{.{.{.{.{.{.",
"{.{.{.{.{.{.{.)./                                                                 / (.{.{.{.{.{.{.{.",
"{.{.{.{.{.{.{._.}                                                                 { ).{.{.{.{.{.{.{.",
"{.{.{.{.[.{.[.`.$.X         .           .                         .             . #.`.{.[.{.{.{.{.{.",
"{.{.{.{.{.{.{.].q.+       .             .     . .                               + 0.[.{.{.{.[.{.{.{.",
"{.{.{.{.{.{.{.{.j.,                       .                   . .               , h.{.{.{.{.{.{.{.{.",
"{.{.{.{.{.{.{.{.A.i                                         .                   u C.{.{.{.{.{.{.{.{.",
"{.{.{.{.{.{.{.{.U.M .           O d | 3.W                 E 4. .g +   .       . m U.{.{.{.{.{.{.{.{.",
"{.{.{.{.{.{.{.{.[._ X     . X a l.].{.{.[.n .           b {.{.{.].z.s X       X ( [.{.{.{.{.{.{.{.{.",
"{.{.{.{.{.{.{.{.{.a.$     # ^ Y.{.{.{.{.{.x..         . l.{.{.{.{.{.R./ $     $ p.{.[.{.{.{.{.{.{.{.",
"{.{.{.{.{.{.{.{.{.T.9     N /.{.{.{.{.{.{.E.#         # R.{.{.{.{.{.{./.B     8 Y.{.{.{.{.{.{.{.{.{.",
"{.{.{.{.{.{.{.{.{.[.x     <.{.{.{.{.{.{.{.!.%         % Q.{.{.{.{.{.{.{.1.    x [.{.{.{.{.{.{.{.{.{.",
"{.{.{.{.{.{.{.{.{.k.&     e.{.{.[.{.{.{.[.g..         . f.[.{.{.{.{.{.{.r.    % k.{.{.{.{.{.{.{.{.{.",
"{.{.{.{.{.{.{.{.I.Z .     / {.{.{.{.{.~.a.7             7 p.!.{.{.{.{.{.)       Z P.{.{.{.{.{.{.{.{.",
"{.{.{.{.{.{.{.{.M.w .     > 7._.{.`.b.W 4       0 0       3 E c.`.[._.9.> .     q m.{.{.{.{.{.{.{.{.",
"{.{.{.{.{.{.{.{.G.s         O p V 9 + X .       ..X.      . X + 7 V p +         s F.{.{.[.{.{.{.{.{.",
"{.{.{.{.{.{.{.{.~.P .                       . = A.S.=                         . L ~.{.{.{.{.{.[.{.{.",
"{.{.{.{.{.{.{.{.{.t.$     .                   b R.E.n                         # r.{.{.{.{.{.{.{.{.{.",
"{.{.{.{.{.{.{.{.{.^.) $       .             . o._._.O..                     @ ( ^.{.{.[.{.{.{.{.{.{.",
"{.{.{.{.{.{.{.{.{.{.{.C.Z - .       .       * r.{.{.y.*               . ; C V.{.{.{.{.{.{.{.{.{.{.{.",
"{.{.{.{.{.{.{.{.{.{.{.{.P.5.U 9 o           + ..~.^.o.@           X 9 I 3.L.{.{.{.{.{.{.{.{.{.{.{.{.",
"{.{.{.{.{.{.{.{.{.{.{.{.D.H ] 7.K +           2 J K 3           + J 6.[ H D.{.{.{.{.{.{.{.{.{.{.{.{.",
"{.{.{.{.{.{.{.{.{.{.{.{.J.y + h @.=             . .             = @.j + t H.{.{.{.{.{.{.{.{.{.{.{.{.",
"{.{.{.{.{.{.{.{.{.{.{.{.T.a   e $.;                             - #.r   a T.{.{.{.{.{.{.{.{.{.{.{.{.",
"{.{.{.{.{.{.{.{.{.{.{.{.).c   9 =.: ; r X                 X r - > =.0   z (.{.{.{.{.{.{.{.{.{.{.{.{.",
"{.{.{.{.{.{.{.{.{.{.{.[.{.K   4 :., M *.# p G   q q   F p # %.M > :.4   H {.[.{.{.{.{.{.{.{.{.{.{.{.",
"{.{.{.{.{.{.{.{.{.{.{.{.{.'   : ,.1 S 8.$ ! 9.  -.-.  9.~ $ 7.D < >.:   _ {.{.{.{.{.{.{.{.{.{.{.{.{.",
"{.{.{.{.{.{.{.{.{.{.{.{.{.;.  O s # S 8.# Q 9.  -.;.  9.Q $ 7.D $ s O   ;.{.{.{.{.{.{.{.{.{.{.{.{.{.",
"{.{.{.{.{.{.{.{.{.{.{.{.{.s.        f ` + ! 9.  -.;.  9.! + _ d         d.{.{.{.{.{.{.{.{.{.{.{.{.{.",
"{.{.{.{.{.{.{.{.{.{.{.{.{.Z.        + % X q c   R E   x q . % +         Z.{.{.{.{.{.{.{.{.{.{.{.{.{.",
"{.{.{.{.{.{.{.{.{.[.{.{.{.(.l o                                     o k (.{.{.{.{.{.{.{.{.{.{.{.{.{.",
"{.{.{.{.{.{.{.{.{.{.{.{.{.{.K.A @                                 @ S K.{.{.{.[.{.{.{.{.{.{.{.{.{.{.",
"{.{.{.{.{.{.{.{.{.{.[.{.{.{.{.K.! +     .                 .     + Q K.{.{.{.{.{.{.{.{.{.{.{.{.{.{.{.",
"{.{.{.{.{.{.{.{.{.{.{.{.{.[.{.{.].2.% .     .               . % <.].{.{.{.{.{.{.{.{.{.{.{.{.{.{.{.{.",
"{.{.{.{.{.{.{.{.[.{.{.{.{.{.{.[.{.{.B.F ;         .       ; S N.{.{.{.{.{.{.{.{.{.{.{.{.{.{.{.{.{.{.",
"{.{.{.{.{.{.{.{.{.{.{.{.{.{.{.{.{.{.{.U.w.m $         @ m w.U.{.{.{.{.{.{.{.{.{.{.{.{.{.{.{.{.{.{.{.",
"{.{.{.{.{.{.{.{.{.{.{.{.{.{.{.{.{.{.{.{.].E.l.T = & Y l.E.].{.{.{.{.{.{.{.{.{.{.{.{.{.{.{.{.{.{.{.{."
};
