/* XPM */
static char *_____________[] = {
/* columns rows colors chars-per-pixel */
"50 50 180 2",
"   c #000000",
".  c #010101",
"X  c #020202",
"o  c #030303",
"O  c #040404",
"+  c #050505",
"@  c #060606",
"#  c #070707",
"$  c #080808",
"%  c #090909",
"&  c #0A0A0A",
"*  c #0B0B0B",
"=  c #0C0C0C",
"-  c #0D0D0D",
";  c #0E0E0E",
":  c #0F0F0F",
">  c #101010",
",  c #111111",
"<  c #121212",
"1  c #131313",
"2  c #141414",
"3  c #151515",
"4  c #161616",
"5  c #181818",
"6  c #191919",
"7  c #1A1A1A",
"8  c #1B1B1B",
"9  c #1C1C1C",
"0  c #1D1D1D",
"q  c #1E1E1E",
"w  c #1F1F1F",
"e  c #212121",
"r  c #222222",
"t  c #232323",
"y  c #252525",
"u  c #262626",
"i  c #272727",
"p  c #282828",
"a  c #292929",
"s  c #2B2B2B",
"d  c #2D2D2D",
"f  c #2E2E2E",
"g  c #2F2F2F",
"h  c #303030",
"j  c #333333",
"k  c #343434",
"l  c #363636",
"z  c #373737",
"x  c #383838",
"c  c #393939",
"v  c #3E3E3E",
"b  c #414141",
"n  c #424242",
"m  c #434343",
"M  c #444444",
"N  c #454545",
"B  c #464646",
"V  c #494949",
"C  c #4A4A4A",
"Z  c #4D4D4D",
"A  c #4F4F4F",
"S  c #505050",
"D  c #515151",
"F  c #525252",
"G  c #535353",
"H  c #545454",
"J  c #555555",
"K  c #575757",
"L  c #595959",
"P  c #5A5A5A",
"I  c #5B5B5B",
"U  c #5C5C5C",
"Y  c #5E5E5E",
"T  c #5F5F5F",
"R  c #606060",
"E  c #636363",
"W  c #646464",
"Q  c #656565",
"!  c #666666",
"~  c #676767",
"^  c #686868",
"/  c #696969",
"(  c #6A6A6A",
")  c #6C6C6C",
"_  c #6E6E6E",
"`  c #6F6F6F",
"'  c #707070",
"]  c #717171",
"[  c #767676",
"{  c #777777",
"}  c #787878",
"|  c #797979",
" . c #7A7A7A",
".. c #7B7B7B",
"X. c #7D7D7D",
"o. c #7F7F7F",
"O. c #808080",
"+. c #818181",
"@. c #828282",
"#. c #858585",
"$. c #868686",
"%. c #878787",
"&. c #888888",
"*. c #898989",
"=. c #8A8A8A",
"-. c #8B8B8B",
";. c #8C8C8C",
":. c #8D8D8D",
">. c #8E8E8E",
",. c #8F8F8F",
"<. c #909090",
"1. c #919191",
"2. c #929292",
"3. c #939393",
"4. c #949494",
"5. c #959595",
"6. c #969696",
"7. c #989898",
"8. c #9C9C9C",
"9. c #9F9F9F",
"0. c #A0A0A0",
"q. c #A1A1A1",
"w. c #A2A2A2",
"e. c #A4A4A4",
"r. c #A7A7A7",
"t. c #A8A8A8",
"y. c #AAAAAA",
"u. c #AEAEAE",
"i. c #B5B5B5",
"p. c #B6B6B6",
"a. c #B7B7B7",
"s. c #B8B8B8",
"d. c #B9B9B9",
"f. c #BABABA",
"g. c #BBBBBB",
"h. c #BDBDBD",
"j. c #BEBEBE",
"k. c #C0C0C0",
"l. c #C2C2C2",
"z. c #C3C3C3",
"x. c #C4C4C4",
"c. c #C5C5C5",
"v. c #C6C6C6",
"b. c #C8C8C8",
"n. c #C9C9C9",
"m. c #CACACA",
"M. c #CCCCCC",
"N. c #CECECE",
"B. c #D1D1D1",
"V. c #D9D9D9",
"C. c #DFDFDF",
"Z. c #FFFFFF",
"A. c #FFFFFF",
"S. c #FFFFFF",
"D. c #FFFFFF",
"F. c #FFFFFF",
"G. c #FFFFFF",
"H. c #FFFFFF",
"J. c #FFFFFF",
"K. c #FFFFFF",
"L. c #FFFFFF",
"P. c #FFFFFF",
"I. c #FFFFFF",
"U. c #FFFFFF",
"Y. c #FFFFFF",
"T. c #FFFFFF",
"R. c #FFFFFF",
"E. c #FFFFFF",
"W. c #FFFFFF",
"Q. c #FFFFFF",
"!. c #FFFFFF",
"~. c #FFFFFF",
"^. c #FFFFFF",
"/. c #FFFFFF",
"(. c #FFFFFF",
"). c #FFFFFF",
"_. c #FFFFFF",
"`. c #FFFFFF",
"'. c #FFFFFF",
"]. c #FFFFFF",
/* pixels */
"].].].].].].].].].].].].`.`.`._.`.L.>.L k t < @ . o - 9 d N ] p.^._.`.'.`.'.].].].].].].].].].].].].",
"].].].'.].].].].].].].].`.)._.H.%.p $ . . .             . . . $ p $.G._.).`.].].].].].].].].].].].].",
"].].].].].].].].].].].]._.g._ %   o   .         . .         .   o   % _ f._.].].].].].].].].].].].].",
"].].].].].]._._.).)._.J.( . X                                         X X / H._.).)._._.].].'.].].].",
"].].].].].].`.)._.).q.9 . . .                                         X . . 9 q.(._.).`.].].].].].].",
"].].].].].].(.(.Y. .X . X .   .                         .           .   . X . X | Y.(.(.].].].].].].",
"].].].`.`._._.P.x X                                                             X x P._.`.`.`.].].].",
"].].]._.)./.I.S o                                                 .   .           o S I./.)._.].].].",
"].].].)._.W.z         .                                                   .           l W._.).].].].",
"].].].(.^. .X     .                                                     .   . X       X | ^.(.].].].",
"].].].(.w.O       . .   .   o X                                         q ..+   .       X q./.].].].",
"].].].J.8 o     X - 2 - .       .                                     g D.1.0 5         o 7 G.].].].",
"'.'.)./ o o .   . X./.J.k._ 5   .                         .       O ) A.#.Y G.j 1       X o ^ ).'.].",
"`.).d.    .         o.(._.`.U.L * X o                     X     = q.W.6.g H.u =.i.- . .   .   s.).`.",
"_.).' o           . & $.).^.).~.M.m o                   X . . e m.~.! N P.V &.d.c g.r       o ` ).(.",
"'.G.&       .         X <._._.`._.W.o.<                   X C G.L./ D C.n { n.k z.u.$ .       % G.`.",
"_.*..                   @ &.(.).].].`.V.w . .   .       X C W.(.H u K.l 8.l.5 l.N.*     .       &.).",
"P.p X           .       . + >.).].].'.(.C.S O X .       # h.F.V G K.Z O.x.j f.G.h O   .       X i ^.",
",.%                         . >._.'.`.)._._.` @         2 U.C.A G.l X.b.< u.!.N     .           $ m.",
"L . . .                       & :.).(.].].]./.9.$   . X 3 E._.).[ *.s.a u.!.) #     .           . t.",
"j                               . 1.(.].].].(._.r.3     i ~.).).T.S.y >.!.r.o                     @.",
"r                                 # ;.].].].)._.(.c.=   P ).`.).).U.j.(.K.4 . .             .     ! ",
"<                                   + <._.).].].]._.v.b Z.(.).(._._._.v.w                         x ",
"+       .                           .   1.^.].].].(.)./._.(.E.b.$.' M o X                         > ",
"X       .                               & ,.].].].).`._.`.w.f . .       X                         O ",
"O                                           1.).(.].].].<.+ .                                     + ",
"=                                           @ B.(.].].].p . X                                     > ",
"9                                           1.).`.].].].h.>                                       c ",
"d     .                                 @ 3._.).).!./._._.e.4 . X .         .                     ~ ",
"N                                   . . -.^.(.).W.W 5._.).).S.E X X       .                       @.",
"' .                                 O 3.'._._.U.F   o 3._.).).).T                               . t.",
"a.%                               . 3./.)._.^.F .     @ 2./._._.Q.J .   .                       % m.",
"^.p X                           X ;.).(.).W.L X .       $ 7.).).).E.R O X                     X i ^.",
"_.&.            .   .         + 9.`.)._.I.n O           X   2./.!.(.).Z +           .           &.).",
"'.G.%                       . ;./.).`.!.I .                 * 4./._._.U.S . . .               % G.`.",
"_.).' o                 . @ <.).).).Y.Z o .                   X 7.).(.).^.K     X       .   o ` ).(.",
"'.).d.  . .             . 9./.).).R.m @                       X @ <.^.~.`.T.v . X       . .   s.).`.",
"].'.).^ o X           . =.)._._.!.U   X                           # 3.^.).`.R.j         X o ^ ).'.'.",
"].].].J.7 O           , W._.).I.l X .                               X 1./._.^.Q         o 6 G.'.].].",
"].].].(.w.o           * J.~.Q.J @ .                                 . - 6.~.U.k         o q.(.].].].",
"].].].(.^.| X         X F y.B   .   . .                             .     s u .       X } ^.(.].].].",
"].].].)._.E.z                                                                         l E._.).'.].].",
"].].]._.)./.I.S o                                                                 o S I./.).).].].].",
"].].].`.`._._.P.l .                                                             X l I._._.`.`.].].].",
"].].].].].].(.(.U.| X . X X   .                                     .   . X . X } U.(.(.].].].].].].",
"].].].].].].`.)._.(.q.9   . .                                         X . . 9 0.(._.)._.].].].].].].",
"].].'.].].].)._.).)._.H.^ . X     .                                   X . ^ H._.).)._._.].].].].].].",
"].].].'.].].].].'.].].]._.g._ %   X     .                       o   % _ f.).].].].].].].].].].].].].",
"].].].].].].].].].].'.].`.)._.H.$.i $ . . .             . . . $ i $.G._.).`.].].].].].].].].].].].].",
"].].].].].].].].].].].].`.(._.).(.^.b.r.O.! z : . X ; z ! +.r.b.^.(.)._.(.`.].].].].].].].].].].].]."
};
