/* XPM */
static char *_____________[] = {
/* columns rows colors chars-per-pixel */
"50 50 162 2",
"   c #000000",
".  c #010101",
"X  c #020202",
"o  c #030303",
"O  c #040404",
"+  c #050505",
"@  c #060606",
"#  c #070707",
"$  c #090909",
"%  c #0A0A0A",
"&  c #0C0C0C",
"*  c #0D0D0D",
"=  c #0E0E0E",
"-  c #0F0F0F",
";  c #101010",
":  c #111111",
">  c #141414",
",  c #151515",
"<  c #161616",
"1  c #171717",
"2  c #181818",
"3  c #191919",
"4  c #1A1A1A",
"5  c #1B1B1B",
"6  c #1C1C1C",
"7  c #1D1D1D",
"8  c #212121",
"9  c #222222",
"0  c #232323",
"q  c #272727",
"w  c #292929",
"e  c #2A2A2A",
"r  c #2C2C2C",
"t  c #2D2D2D",
"y  c #2E2E2E",
"u  c #2F2F2F",
"i  c #303030",
"p  c #313131",
"a  c #323232",
"s  c #373737",
"d  c #383838",
"f  c #3A3A3A",
"g  c #3B3B3B",
"h  c #3C3C3C",
"j  c #3E3E3E",
"k  c #434343",
"l  c #464646",
"z  c #484848",
"x  c #494949",
"c  c #4B4B4B",
"v  c #4F4F4F",
"b  c #505050",
"n  c #525252",
"m  c #535353",
"M  c #545454",
"N  c #595959",
"B  c #656565",
"V  c #676767",
"C  c #696969",
"Z  c #6B6B6B",
"A  c #6C6C6C",
"S  c #6D6D6D",
"D  c #6E6E6E",
"F  c #707070",
"G  c #717171",
"H  c #737373",
"J  c #757575",
"K  c #767676",
"L  c #787878",
"P  c #7C7C7C",
"I  c #7E7E7E",
"U  c #7F7F7F",
"Y  c #828282",
"T  c #848484",
"R  c #858585",
"E  c #888888",
"W  c #898989",
"Q  c #8A8A8A",
"!  c #8B8B8B",
"~  c #909090",
"^  c #919191",
"/  c #939393",
"(  c #959595",
")  c #969696",
"_  c #979797",
"`  c #989898",
"'  c #9C9C9C",
"]  c #9D9D9D",
"[  c #A0A0A0",
"{  c #A2A2A2",
"}  c #A3A3A3",
"|  c #A4A4A4",
" . c #A5A5A5",
".. c #A6A6A6",
"X. c #AAAAAA",
"o. c #ACACAC",
"O. c #ADADAD",
"+. c #AFAFAF",
"@. c #B0B0B0",
"#. c #B2B2B2",
"$. c #B3B3B3",
"%. c #B5B5B5",
"&. c #B7B7B7",
"*. c #B8B8B8",
"=. c #B9B9B9",
"-. c #BABABA",
";. c #BBBBBB",
":. c #BCBCBC",
">. c #BDBDBD",
",. c #BEBEBE",
"<. c #BFBFBF",
"1. c #C1C1C1",
"2. c #C2C2C2",
"3. c #C4C4C4",
"4. c #C5C5C5",
"5. c #C6C6C6",
"6. c #C8C8C8",
"7. c #C9C9C9",
"8. c #CCCCCC",
"9. c #CDCDCD",
"0. c #CECECE",
"q. c #CFCFCF",
"w. c #D0D0D0",
"e. c #D1D1D1",
"r. c #D3D3D3",
"t. c #D4D4D4",
"y. c #D5D5D5",
"u. c #D6D6D6",
"i. c #D7D7D7",
"p. c #D8D8D8",
"a. c #DADADA",
"s. c #DCDCDC",
"d. c #DDDDDD",
"f. c #DEDEDE",
"g. c #DFDFDF",
"h. c #FFFFFF",
"j. c #FFFFFF",
"k. c #FFFFFF",
"l. c #FFFFFF",
"z. c #FFFFFF",
"x. c #FFFFFF",
"c. c #FFFFFF",
"v. c #FFFFFF",
"b. c #FFFFFF",
"n. c #FFFFFF",
"m. c #FFFFFF",
"M. c #FFFFFF",
"N. c #FFFFFF",
"B. c #FFFFFF",
"V. c #FFFFFF",
"C. c #FFFFFF",
"Z. c #FFFFFF",
"A. c #FFFFFF",
"S. c #FFFFFF",
"D. c #FFFFFF",
"F. c #FFFFFF",
"G. c #FFFFFF",
"H. c #FFFFFF",
"J. c #FFFFFF",
"K. c #FFFFFF",
"L. c #FFFFFF",
"P. c #FFFFFF",
/* pixels */
"P.P.P.P.P.P.P.P.P.P.P.P.P.P.P.P.P.P.P.P.P.P.P.P.P.P.P.P.P.P.P.P.P.P.P.P.P.P.P.P.P.P.P.P.P.P.P.P.P.P.",
"P.P.P.P.P.P.P.P.P.P.P.P.P.P.P.P.P.P.P.P.P.P.P.P.P.P.P.P.P.P.P.P.P.P.P.P.P.P.P.P.P.P.P.P.L.P.P.P.P.P.",
"P.P.P.P.P.P.P.P.P.P.P.P.P.P.P.P.P.P.P.P.P.P.P.P.P.P.P.P.P.P.P.P.P.P.P.P.P.P.P.P.L.P.P.P.P.P.P.P.P.P.",
"P.P.P.P.P.P.P.P.P.P.P.P.P.P.P.P.P.P.P.P.P.P.P.P.P.P.P.P.P.P.P.P.P.P.P.P.P.P.P.P.P.P.P.P.P.P.P.P.P.P.",
"P.P.P.P.P.P.P.P.P.P.P.P.P.P.P.P.P.P.P.P.P.P.P.P.P.P.P.P.P.P.P.P.P.L.L.P.L.L.L.P.L.P.L.L.P.K.L.L.P.P.",
"P.P.P.P.P.P.P.P.P.P.P.P.P.P.P.P.P.P.P.P.P.P.P.P.P.P.P.P.P.P.P.P.P.G.L.G.L.L.L.G.J.G.L.J.K.J.K.L.P.P.",
"P.P.P.P.P.P.P.P.P.P.P.P.P.P.P.P.P.P.P.P.P.P.P.P.P.P.P.P.P.P.P.P.K.K.H.J.' Z C A A D S s.H.K.K.L.P.P.",
"P.P.P.P.P.P.P.P.P.P.P.P.P.P.P.P.P.P.P.P.P.P.P.P.P.P.P.P.P.P.P.P.K.K.J.K.L s d s i   2 s.G.J.K.L.P.P.",
"P.P.P.P.P.P.P.P.P.P.P.P.P.P.P.P.P.P.P.P.P.P.P.P.P.P.P.P.P.L.L.L.L.G.K.J.G.J.J.S.K O w.S.L.K.L.K.P.L.",
"P.P.P.P.P.P.P.P.P.L.L.K.P.P.P.L.K.L.L.L.L.L.P.P.P.P.P.P.P.P.P.P.P.L.J.L.K.J.J.U ; 3.J.P.H.J.J.L.P.L.",
"P.P.P.P.P.P.P.P.L.L.P.P.K.K.J.J.L.J.L.J.L.H.L.L.P.P.P.P.P.P.P.L.K.J.J.G.J.F.] + _ L.F.H.J.J.J.L.P.L.",
"P.P.P.P.P.P.P.P.L.K.K.L.L.J.J.L.H.L.L.H.K.K.K.L.K.P.P.P.P.P.P.L.K.J.L.F.L.$.. _ H.M.J.H.K.K.K.K.P.L.",
"P.P.P.P.P.P.P.P.P.L.L.L.K.G.K.J.L.L.K.J.L.K.L.L.L.P.P.P.P.P.P.P.K.G.K.K.@.& M q.5.5.8.D.J.K.J.J.P.L.",
"P.P.L.P.P.P.P.L.L.P.L.K.L.v.>. ._ ) | :.k.F.K.P.P.P.P.P.P.P.P.L.J.J.K.Z.b o X + o # o 8.K.H.G.H.L.L.",
"P.P.L.P.L.K.L.J.L.L.n.-.u         .   X . t +.x.K.L.K.K.K.K.K.L.L.K.H.H.H.F.G.D.L.V.F.L.G.K.K.J.J.K.",
"P.L.L.J.L.K.G.J.S.I 1 $ o               . . # > H A.H.K.L.K.J.K.K.L.L.P.L.L.K.K.K.H.G.G.L.C.D.J.H.K.",
"P.L.P.L.J.F.H.w.d X O     . .             X . X   a 6.J.G.J.K.L.J.L.P.P.L.L.K.L.G.A.B.M.V.b.M.n.V.D.",
"P.P.P.J.H.S.&.+ . + .       .         X         X o O &.J.K.F.P.L.L.L.L.P.L.P.K.H.f.. X   o . O A K.",
"P.L.K.L.J.5.+ o   o .       .         X .   .   % X . $ 2.G.K.P.L.L.L.L.P.L.P.H.K.G.e.0.6.e.j 8 C.H.",
"L.H.L.K.y.= +   .     .       O . X X . .   .   . O . O . 6.F.H.H.K.K.K.K.K.H.J.J.L.K.D.V.v p f.A.K.",
"P.K.H.v.r     o .     .   . .   . + . .   . .   X .   X o w b.G.H.K.L.K.H.K.J.L.H.B.J.b.N 8 r.L.H.H.",
"K.K.F.~ O #               . .   X . X   .       X X   X   . J K.J.G.J.K.H.K.J.L.J.K.S.m > x.G.F.K.K.",
"L.K.B.5 .   X o .       . . X X o O               O X o $   3 K.G.L.G.H.K.L.J.L.J.D.c , *.t.s.d.b.H.",
"L.J.( . . X 7 4.O .       . H s .   ,.h         . * >.o . X   / P.Z.r.r.w.r.q.D.H.7.X X X X . . B J.",
"K.F.g     o X 3.Y 4 * = 1 n k.< o o x 8.y ; * : q i.Z   o . . 2 Z.O.X o + o X 2.G.K.N.n.n.m.N.m.J.H.",
"L.S.5 . X   O - G h.g.h.c.] 3   .     p 5.j.h.l.w.f X .   . . $ g.C.q.a...+ F S.K.L.J.G.L.K.H.K.J.L.",
"L.n.O       O . o # 1 1 O o . . .   + o . ; 1 = . . X X     . . 6.D.L.u.0 M G.H.J.J.H.L.G.K.K.K.K.K.",
"H.u.    X   X   X o X   X   X X   O   X o .   X X X X     .     %.J.l.2 z G.N.J.H.K.K.H.K.K.H.K.J.H.",
"K.;.  .     .                   . X O     . . . . .             o.M.6 o %.1.6.F.G.K.K.L.K.P.P.L.L.P.",
"K.<.o .                     . X X       .   . .                  .#.* X $ O # f.G.L.L.P.L.P.P.P.L.P.",
"P.9.X                           .   . . .   X .         .   . . =.G.D.F.H.F.G.K.P.K.K.L.P.P.P.P.P.P.",
"L.b.o                               & P T : . X             . X 3.K.K.D.G.D.H.L.V.J.K.L.P.P.P.P.L.P.",
"P.Z.2                 .       . . e M.J.D.V.a X               # g.J.K.S.J.H.G.K.H.K.K.P.P.P.P.P.P.P.",
"P.J.d     .   X .         .     . X.H.G.J.K.:.  .         o . > A.J.H.K.L.P.L.L.L.L.L.P.P.P.P.P.P.P.",
"P.K.^ X o                     +   0.K.G.J.G.k.X X       X   . ! L.G.P.L.L.P.P.P.P.P.P.P.P.L.P.P.P.P.",
"L.G.Z.> o                 X . . X V S.F.L.K.I     .       O 3 G.L.J.P.P.L.P.P.P.P.P.P.P.L.L.P.P.P.P.",
"P.F.G.W + . . .           . . .   * ^ B.V...; o .     . . o F G.F.K.L.L.P.P.P.P.P.P.P.P.L.L.P.P.P.P.",
"L.K.J.v.7 .                     O   X         o .         9 N.K.H.L.L.L.L.P.P.P.P.P.P.P.P.P.P.P.P.P.",
"P.K.F.J.f.&   .   X . X             .         o     o . X ,.K.J.F.L.L.L.P.P.P.P.P.P.P.P.P.P.P.P.P.P.",
"P.J.K.J.D.O.@ X   X     .   .               .   . . . # +.H.K.L.J.L.L.L.P.P.P.P.P.P.P.P.P.P.P.P.P.P.",
"L.S.K.G.K.H.{ = . . .   .                     . X . - ` K.F.H.A.K.P.L.K.L.P.P.P.P.P.P.P.P.P.P.P.P.P.",
"P.J.H.H.S.L.G.s.= .   O                   .     . % 8.J.L.S.F.G.J.L.L.L.L.P.P.P.P.P.P.P.P.P.P.P.P.P.",
"L.K.H.K.K.K.K.K.b.Q #     X .   .           X $ R z.K.G.J.H.J.H.L.L.L.L.P.P.P.P.P.P.P.P.P.P.P.P.P.P.",
"P.K.L.L.P.P.P.L.L.J.x.W l : . X         * k T h.J.L.J.L.P.P.L.L.P.P.P.P.P.P.P.P.P.P.P.P.P.P.P.P.P.P.",
"P.P.P.P.P.L.L.P.K.P.J.H.J.A.d.} ! E [ p.A.J.G.J.L.H.L.P.P.P.L.L.P.P.P.P.P.P.P.P.P.P.P.P.P.P.P.P.P.P.",
"P.P.P.P.P.L.L.P.L.J.L.G.K.L.L.K.H.K.K.J.L.L.F.J.L.P.L.P.P.P.P.P.P.P.L.P.P.P.P.P.P.P.P.P.P.P.P.P.P.P.",
"P.P.P.P.P.L.L.P.K.K.J.G.K.H.K.L.K.K.K.K.J.K.H.H.P.K.L.P.P.P.L.L.P.P.P.P.P.P.P.P.P.P.P.P.P.P.P.P.P.P.",
"P.P.P.P.P.P.P.P.P.P.P.L.P.P.P.P.L.L.L.L.L.L.L.P.P.P.L.P.P.P.P.P.P.P.P.P.P.P.P.P.P.P.P.P.P.P.P.P.P.P.",
"P.P.P.P.P.P.P.P.P.P.P.P.P.P.P.P.L.L.L.L.L.L.L.L.P.P.P.P.P.P.P.P.P.P.P.P.P.P.P.P.P.P.P.P.P.P.P.P.P.P.",
"P.P.P.P.P.P.P.P.P.P.P.P.P.P.P.P.P.P.P.P.P.P.P.P.P.P.P.P.P.P.P.P.P.P.P.P.P.P.P.P.P.P.P.P.P.P.P.P.P.P."
};
