/* XPM */
static char *_____________[] = {
/* columns rows colors chars-per-pixel */
"50 50 207 2",
"   c #000000",
".  c #010101",
"X  c #020202",
"o  c #030303",
"O  c #040404",
"+  c #050505",
"@  c #060606",
"#  c #070707",
"$  c #080808",
"%  c #090909",
"&  c #0A0A0A",
"*  c #0B0B0B",
"=  c #0C0C0C",
"-  c #0D0D0D",
";  c #0F0F0F",
":  c #101010",
">  c #111111",
",  c #121212",
"<  c #131313",
"1  c #141414",
"2  c #151515",
"3  c #161616",
"4  c #171717",
"5  c #181818",
"6  c #191919",
"7  c #1A1A1A",
"8  c #1B1B1B",
"9  c #1C1C1C",
"0  c #1D1D1D",
"q  c #1E1E1E",
"w  c #1F1F1F",
"e  c #202020",
"r  c #232323",
"t  c #242424",
"y  c #252525",
"u  c #262626",
"i  c #272727",
"p  c #282828",
"a  c #292929",
"s  c #2B2B2B",
"d  c #2C2C2C",
"f  c #2D2D2D",
"g  c #2E2E2E",
"h  c #2F2F2F",
"j  c #303030",
"k  c #333333",
"l  c #343434",
"z  c #353535",
"x  c #363636",
"c  c #373737",
"v  c #383838",
"b  c #393939",
"n  c #3A3A3A",
"m  c #3B3B3B",
"M  c #3C3C3C",
"N  c #3D3D3D",
"B  c #3E3E3E",
"V  c #3F3F3F",
"C  c #404040",
"Z  c #414141",
"A  c #424242",
"S  c #434343",
"D  c #444444",
"F  c #464646",
"G  c #474747",
"H  c #484848",
"J  c #494949",
"K  c #4B4B4B",
"L  c #4C4C4C",
"P  c #4D4D4D",
"I  c #4E4E4E",
"U  c #515151",
"Y  c #555555",
"T  c #575757",
"R  c #585858",
"E  c #595959",
"W  c #5B5B5B",
"Q  c #5E5E5E",
"!  c #5F5F5F",
"~  c #606060",
"^  c #626262",
"/  c #646464",
"(  c #676767",
")  c #686868",
"_  c #6A6A6A",
"`  c #6C6C6C",
"'  c #6D6D6D",
"]  c #6E6E6E",
"[  c #6F6F6F",
"{  c #707070",
"}  c #717171",
"|  c #737373",
" . c #747474",
".. c #757575",
"X. c #777777",
"o. c #787878",
"O. c #797979",
"+. c #7A7A7A",
"@. c #7B7B7B",
"#. c #7D7D7D",
"$. c #7F7F7F",
"%. c #808080",
"&. c #818181",
"*. c #828282",
"=. c #848484",
"-. c #858585",
";. c #868686",
":. c #878787",
">. c #888888",
",. c #898989",
"<. c #8A8A8A",
"1. c #8E8E8E",
"2. c #8F8F8F",
"3. c #909090",
"4. c #919191",
"5. c #929292",
"6. c #949494",
"7. c #969696",
"8. c #979797",
"9. c #989898",
"0. c #999999",
"q. c #9B9B9B",
"w. c #9C9C9C",
"e. c #9D9D9D",
"r. c #9E9E9E",
"t. c #9F9F9F",
"y. c #A1A1A1",
"u. c #A2A2A2",
"i. c #A3A3A3",
"p. c #A4A4A4",
"a. c #A5A5A5",
"s. c #A6A6A6",
"d. c #A8A8A8",
"f. c #AAAAAA",
"g. c #ABABAB",
"h. c #AFAFAF",
"j. c #B1B1B1",
"k. c #B2B2B2",
"l. c #B3B3B3",
"z. c #B4B4B4",
"x. c #B5B5B5",
"c. c #B6B6B6",
"v. c #B7B7B7",
"b. c #B8B8B8",
"n. c #B9B9B9",
"m. c #BABABA",
"M. c #BBBBBB",
"N. c #BCBCBC",
"B. c #BFBFBF",
"V. c #C0C0C0",
"C. c #C1C1C1",
"Z. c #C2C2C2",
"A. c #C3C3C3",
"S. c #C4C4C4",
"D. c #C6C6C6",
"F. c #C7C7C7",
"G. c #C9C9C9",
"H. c #CACACA",
"J. c #CBCBCB",
"K. c #CCCCCC",
"L. c #CECECE",
"P. c #CFCFCF",
"I. c #D0D0D0",
"U. c #D1D1D1",
"Y. c #D2D2D2",
"T. c #D3D3D3",
"R. c #D4D4D4",
"E. c #D5D5D5",
"W. c #D7D7D7",
"Q. c #D8D8D8",
"!. c #D9D9D9",
"~. c #DADADA",
"^. c #DDDDDD",
"/. c #DEDEDE",
"(. c #DFDFDF",
"). c #FFFFFF",
"_. c #FFFFFF",
"`. c #FFFFFF",
"'. c #FFFFFF",
"]. c #FFFFFF",
"[. c #FFFFFF",
"{. c #FFFFFF",
"}. c #FFFFFF",
"|. c #FFFFFF",
" X c #FFFFFF",
".X c #FFFFFF",
"XX c #FFFFFF",
"oX c #FFFFFF",
"OX c #FFFFFF",
"+X c #FFFFFF",
"@X c #FFFFFF",
"#X c #FFFFFF",
"$X c #FFFFFF",
"%X c #FFFFFF",
"&X c #FFFFFF",
"*X c #FFFFFF",
"=X c #FFFFFF",
"-X c #FFFFFF",
";X c #FFFFFF",
":X c #FFFFFF",
">X c #FFFFFF",
",X c #FFFFFF",
"<X c #FFFFFF",
"1X c #FFFFFF",
"2X c #FFFFFF",
"3X c #FFFFFF",
"4X c #FFFFFF",
/* pixels */
"4X4X4X4X4X4X4X4X4X4X4X4X4X4X4X4X4X2X|.j.( p - o X . o $ 8 C <.A.oX<X3X4X4X4X4X4X4X4X4X4X4X4X4X4X4X4X",
"4X4X4X4X4X4X4X4X4X4X4X4X4X4X4X2X#XR.*.u                       9 | Z.XX<X3X4X4X4X4X4X4X4X4X4X4X4X4X4X",
"4X4X4X4X4X4X4X4X4X4X4X4X4X3X=XP.#.3                   .           2 ( N.+X3X4X4X4X4X4X4X4X4X4X4X4X4X",
"4X4X4X4X4X4X4X4X4X4X4X4X2X}.r.b O .         .         .               i -.~.,X3X4X4X4X4X4X4X4X4X4X4X",
"4X4X4X4X4X4X4X4X4X4X4X1X~...0 .                                         * T Z.,X4X4X4X4X4X4X4X4X4X4X",
"4X4X4X4X4X4X4X4X3X4X2XT.Y =       .                                         N b.1X4X4X4X4X4X4X4X4X4X",
"4X4X4X4X4X4X4X4X4X4X(.V o                 O 5 +                               g n.2X4X4X4X4X4X4X4X4X",
"4X4X4X4X4X4X4X4X3X%XK               3 [ . r F.x.T                               s R.4X4X4X4X4X4X4X4X",
"4X4X4X4X4X4X4X4X<X<.+             x D.@XB.V.3X,X;.                        . .   . G %X4X4X4X4X4X4X4X",
"4X4X4X4X4X4X4X3X^.;               k `.4X1X1X4X2XI.A.v.i                           , e.1X4X4X4X4X4X4X",
"4X4X4X4X4X4X4X3X;.+           o 6 J [.4X2X1X<X4X4X4X2X! @     # S V > 3 +           v .X3X3X4X4X4X4X",
"4X4X4X4X4X4X4X-Xy             l F.4X4X3X XM.M. X4X4X,Xi.1   1 x 1XK.a._.^ #         0 p.3X4X4X4X4X4X",
"4X4X4X4X3X4X4X/.e             ] .X4X4X<X}   @ _ 4X4X.XD X l f.l.1X3X3X2X,.p O       O Q =X4X4X4X4X4X",
"4X4X4X4X4X4X4XG.8             L d.OX4X,X+     R 4X4X3Xi.5 g.2X3X Xk.U.,XI.f.q         V W.4X4X3X4X4X",
"4X4X4X4X4X4X4XM.6     .         v E.4X1X{ 3 y 4.4X4X4X2Xf T ,X%X,.1 / ].3XoXz .       a l.3X4X4X4X4X",
"4X4X4X4X4X4X4XV.6             - =.@X4X4X&Xu.h.oX4X2X}.E.w 7.1X#XO.  I !.1X6.7         1 5.3X4X4X4X4X",
"4X4X4X4X4X4X4XP.0             # 0.-X>X3X4X4X4X4X2Xz.Y B % ~.;X<X(.s.S.=X1XC.8         O X.2X4X4X4X4X",
"4X4X3X4X4X4X4X_.e               d 9.Y +X4X3X1X2X3X).F     l D ,X4X4X2X>X*X7.,           ' ,X4X3X4X4X",
"4X4X4X4X4X4X4X#Xr             . . , O OX3X+X$. .&X$.9 - .   n >X-XXX1Xr.k > .           ` >X4X4X4X4X",
"4X4X4X4X4X4X4X,Xu .                   < C.B.+ O * O q.#XT.+X% r $.U E. .-               { 1X4X4X4X4X",
"4X4X4X4X4X4X4X3X^ o                 .       .   } 2X3X>X2X1X9 X                       , 1.3X4X4X4X4X",
"4X4X4X4X4X4X4X,XW O     .                       ) &X{.%.b.>X&Xt             .   .     i j.3X4X4X4X4X",
"4X4X4X4X4X4X3X^.e           .             .   . Q  X3.4 g $X%X9                       Z ~.4X4X4X4X4X",
"4X4X3X4X4X4X:X%.-                               H Y.1X;.I.<X#Xo                     & } >X4X4X4X4X4X",
"3X4X4X3X4X3XG.s                                   ;.<X3X2Xq.*.X                     s H.4X4X4X4X4X4X",
"4X4X4X4X4X%X] *         .                         N }  .o.:                       = #.:X4X4X4X4X4X4X",
"4X4X4X4X4XD.z                                           o                       . A '.3X4X4X4X4X4X4X",
"4X4X4X4X4X3.,                                                                   $ Z.2X4X4X4X4X4X4X4X",
"4X4X4X4X4X8.3                                                         .   .     <.:X3X4X4X4X4X4X4X4X",
"4X4X4X3X4X&X@.;                                                               c =X3X4X4X4X4X4X4X4X4X",
"4X4X4X4X4X4X>X( $           .                                               O P.2X4X4X3X4X4X4X4X4X4X",
"4X4X4X4X4X4X4X).a           .                                 .     .       ) -X4X4X4X4X4X4X4X4X4X4X",
"4X4X4X4X4X4X3X1X .O                                                       # Z.2X4X4X4X4X4X4X4X4X4X4X",
"4X4X4X4X4X4X4X3XB.%                                                       M ).2X4X4X4X4X4X4X4X4X4X4X",
"4X4X4X4X4X4X4X4X|.*                                                 .     @.@X2X4X4X4X4X4X4X4X4X4X4X",
"4X4X4X4X3X4X4X4X>X4         .                                             :.&X4X4X4X4X4X4X4X4X4X4X4X",
"4X4X4X4X4X4X4X4X3XP                                                       X.#X4X4X4X4X4X4X4X4X4X4X4X",
"4X4X4X4X4X4X4X4X4X&.  .                                                   Q .X3X4X4X4X4X4X4X4X4X4X4X",
"4X4X4X4X4X4X4X4X4Xp.                                                .   r z.>X3X4X4X4X4X4X4X4X4X4X4X",
"4X4X4X4X4X4X4X4X4XF.                                                  a k.>X3X4X4X4X4X4X4X4X4X4X4X4X",
"4X4X4X4X4X4X4X4X3X-XC # + + @ # $ % % +               .           . h z.<X4X4X4X4X4X4X4X4X4X4X4X4X4X",
"4X4X4X4X4X4X4X4X4X4X&Xn.7.2.t.j.J.^.Q.>.1                       O l l.1X4X4X4X4X4X4X4X4X4X4X4X4X4X4X",
"4X4X4X4X4X4X4X4X4X4X4X4X4X4X4X4X4X4X4X1Xu.<                   O m c.1X4X4X4X4X4X4X4X4X4X4X4X4X4X4X4X",
"4X4X4X4X4X4X4X4X3X4X4X4X4X4X4X4X4X4X4X4X=X+.                X N m.1X4X4X4X4X4X4X4X4X4X4X4X4X4X4X4X4X",
"4X4X4X4X4X4X4X4X4X4X4X4X4X4X4X4X4X4X4X4X3X^.x   .           D V.2X4X4X4X4X4X4X4X4X4X4X4X4X4X4X4X4X4X",
"4X4X4X4X4X4X4X4X4X4X4X4X4X4X4X4X4X3X4X4X3X-Xw.            I K.2X4X4X4X4X4X4X4X4X4X4X4X4X4X4X4X4X4X4X",
"4X4X4X4X4X4X4X4X4X4X4X4X4X4X4X4X4X4X4X4X4X3XL.j         E Y.2X3X4X4X4X3X4X4X4X4X4X4X4X4X4X4X4X4X4X4X",
"4X4X4X4X4X4X4X4X3X4X4X4X4X4X3X4X4X4X4X4X4X2X&X>.      ~ E.1X4X4X4X4X4X4X4X3X4X4X4X4X4X4X4X4X4X4X4X4X",
"4X4X4X4X4X4X4X4X4X4X4X4X4X4X4X4X4X4X4X4X4X4X2Xy.    / ~.<X3X4X4X4X4X4X4X4X4X4X4X4X4X4X4X4X4X4X4X4X4X",
"4X4X4X4X4X4X4X4X4X4X4X4X4X4X4X4X4X3X4X4X4X4X3XH.B / `.1X3X4X4X4X4X4X4X4X4X4X4X4X4X4X4X4X4X4X4X4X4X4X"
};
